<svg width="74" height="74" viewBox="0 0 74 74" fill="none" xmlns="http://www.w3.org/2000/svg">
<g clip-path="url(#clip0_1267_42351)">
<rect width="74" height="74" rx="3.7" fill="#FFEBD4"/>
<path d="M48.0943 36.222C48.0943 47.6806 38.1551 53.65 25.8943 53.65C13.6336 53.65 3.69434 47.6806 3.69434 36.222C3.69434 26.4798 10.8789 14.9863 20.5663 12.756C20.8601 12.6884 20.1223 11.5322 20.5663 11.3248C21.4543 10.9098 22.0443 12.4636 22.3423 12.4188C22.927 12.3309 23.6743 9.66495 25.0063 9.25C25.8943 10.0799 25.2965 12.1547 25.8943 12.1547C38.1551 12.1547 48.0943 24.7634 48.0943 36.222Z" fill="white"/>
<ellipse cx="17.0218" cy="31.1723" rx="2.22" ry="2.4975" fill="#424242"/>
<ellipse cx="34.221" cy="31.1723" rx="2.22" ry="2.4975" fill="#424242"/>
<ellipse cx="25.8964" cy="40.8847" rx="4.995" ry="3.33" fill="#FCD959"/>
<path d="M44.518 64.8964L45.1849 58.3358C45.2573 57.6238 45.8802 57.0967 46.5944 57.1432L50.9871 57.429C51.739 57.4779 52.3001 58.141 52.2239 58.8906L51.5569 65.4512C51.4846 66.1633 50.8617 66.6903 50.1475 66.6439L45.7548 66.3581C45.0029 66.3092 44.4418 65.646 44.518 64.8964Z" fill="#FFB271"/>
<path d="M44.6339 38.7916L66.6397 38.5573L64.2413 60.0587L43.0205 53.3471L44.6339 38.7916Z" fill="white"/>
<ellipse cx="69.6563" cy="49.461" rx="3.32489" ry="4.98733" transform="rotate(7.21225 69.6563 49.461)" fill="white"/>
<rect x="66.0225" y="36.1602" width="5.06243" height="26.3643" rx="2.53122" transform="rotate(7.20952 66.0225 36.1602)" fill="#FFB271"/>
<path d="M43.4911 57.6264L44.2931 53.2756C44.3501 52.9665 44.6136 52.7388 44.9279 52.7365C48.8038 52.7084 55.2583 53.3901 54.8352 55.9861C54.3919 58.7061 52.5126 59.2711 51.6284 59.2135L44.1584 58.4171L44.0745 58.4082C43.6896 58.3671 43.4209 58.0071 43.4911 57.6264Z" fill="white"/>
<path d="M36.7112 42.223C37.1302 39.4823 39.5839 37.5229 42.3493 37.7206L45.5283 37.9479C45.9089 37.9751 46.1886 38.3163 46.1406 38.6948L44.2149 53.8858C44.1654 54.2762 43.7896 54.5384 43.4061 54.4502L39.9449 53.6537C37.2313 53.0293 35.4584 50.4179 35.8792 47.6654L36.7112 42.223Z" fill="#FFB271"/>
</g>
<defs>
<clipPath id="clip0_1267_42351">
<rect width="74" height="74" rx="3.7" fill="white"/>
</clipPath>
</defs>
</svg>
