<svg width="324" height="317" viewBox="0 0 324 317" fill="none" xmlns="http://www.w3.org/2000/svg">
<path opacity="0.4" d="M136.697 12.3727C149.555 -4.07783 174.445 -4.07785 187.303 12.3727L199.966 28.5743C206.981 37.5488 218.225 42.1362 229.515 40.6302L250.12 37.8819C271.204 35.0696 289.148 53.1611 286.163 74.2217L283.689 91.6801C282.03 103.384 286.935 115.052 296.457 122.057L310.831 132.63C328.278 145.464 328.278 171.536 310.831 184.37L296.457 194.943C286.935 201.948 282.03 213.616 283.689 225.32L286.163 242.778C289.148 263.839 271.204 281.93 250.12 279.118L229.515 276.37C218.225 274.864 206.981 279.451 199.966 288.426L187.303 304.627C174.445 321.078 149.555 321.078 136.697 304.627L124.034 288.426C117.019 279.451 105.775 274.864 94.4846 276.37L73.8798 279.118C52.7955 281.93 34.8516 263.839 37.8365 242.778L40.3109 225.32C41.9697 213.616 37.0651 201.948 27.5432 194.943L13.1691 184.37C-4.27822 171.536 -4.27822 145.464 13.1691 132.63L27.5432 122.057C37.0652 115.052 41.9697 103.384 40.3109 91.6801L37.8365 74.2216C34.8516 53.1611 52.7955 35.0696 73.8798 37.8819L94.4846 40.6302C105.775 42.1362 117.019 37.5488 124.034 28.5743L136.697 12.3727Z" fill="#D1D1D1"/>
</svg>
