<svg width="24" height="24" viewBox="0 0 24 24" fill="none" xmlns="http://www.w3.org/2000/svg">
<rect width="24" height="24" rx="12" fill="#E3E3E3"/>
<path fill-rule="evenodd" clip-rule="evenodd" d="M6.67257 17.3163C6.24222 16.8859 7.03797 14.368 7.03797 14.368C7.03797 14.368 7.04719 14.1736 7.7397 13.2159C8.25311 12.5059 14.0569 6.87367 14.0569 6.87367C14.0569 6.87367 15.1041 5.86798 16.6101 7.3746C18.0127 8.77773 17.1075 9.91216 17.1075 9.91216L10.7903 16.2544C10.7903 16.2544 10.6679 16.4911 9.61972 16.9508C9.30773 17.0876 7.10293 17.7467 6.67257 17.3163ZM14.7923 7.68322L14.784 7.68821L14.7518 7.71949L14.5673 7.89892C14.408 8.05394 14.1797 8.27628 13.9042 8.54533C13.7202 8.72502 13.5151 8.92548 13.2955 9.1406C13.4906 9.26715 13.931 9.5637 14.1893 9.82191C14.4227 10.0554 14.6875 10.4378 14.8297 10.6532L16.2503 9.22688C16.2699 9.18575 16.2922 9.12424 16.3005 9.04913C16.3119 8.94641 16.3255 8.63299 15.8386 8.14583C15.2817 7.58879 14.9715 7.6323 14.9205 7.63945L14.9202 7.63949C14.8642 7.64735 14.8201 7.66704 14.7923 7.68322ZM13.8856 11.601C13.8172 11.3865 13.6803 11.0485 13.4455 10.8136C13.1525 10.5207 12.5425 10.2237 12.3042 10.114C12.1568 10.2592 12.0075 10.4065 11.8575 10.5546C11.1013 11.3017 10.3323 12.0677 9.72189 12.6896C9.41627 13.001 9.15423 13.2723 8.95486 13.4852C8.85503 13.5918 8.7745 13.68 8.71377 13.7489C8.6505 13.8207 8.62595 13.8523 8.62385 13.855L8.62385 13.855C8.62374 13.8551 8.62369 13.8552 8.62371 13.8552C8.29295 14.3126 8.14964 14.5548 8.09382 14.6605L8.08302 14.6814L8.07828 14.6964L8.07826 14.6964L8.07822 14.6966L8.07816 14.6968L8.07812 14.6969L8.07697 14.7006L8.07154 14.7181C8.06659 14.7341 8.05907 14.7587 8.04947 14.7907C8.03024 14.8547 8.0028 14.9481 7.97097 15.0619C7.90684 15.2913 7.82719 15.5957 7.76099 15.9074C7.72937 16.0563 7.70269 16.1982 7.68219 16.3285C7.77431 16.3145 7.87332 16.297 7.97776 16.2763C8.26326 16.2195 8.55099 16.1458 8.78546 16.0781C8.90209 16.0444 9.00141 16.0134 9.07673 15.9883C9.13729 15.9682 9.16945 15.9561 9.17961 15.9523C9.18372 15.9507 9.18423 15.9506 9.18156 15.9517C9.64253 15.7496 9.86226 15.6141 9.94901 15.5532L10.0173 15.4846L13.8856 11.601Z" fill="#818181"/>
</svg>
