<svg width="30" height="30" viewBox="0 0 30 30" fill="none" xmlns="http://www.w3.org/2000/svg">
<path d="M0 15C0 6.71573 6.71573 0 15 0C23.2843 0 30 6.71573 30 15C30 23.2843 23.2843 30 15 30C6.71573 30 0 23.2843 0 15Z" fill="#4285F4"/>
<path d="M17.0063 15.6644L17.3172 13.6168H15.372V12.2886C15.372 11.7283 15.6432 11.1818 16.5145 11.1818H17.3994V9.43864C17.3994 9.43864 16.5967 9.30029 15.8296 9.30029C14.2268 9.30029 13.1802 10.2812 13.1802 12.0562V13.6168H11.3994V15.6644H13.1802V20.6145C13.5378 20.6712 13.9035 20.7003 14.2761 20.7003C14.6487 20.7003 15.0145 20.6712 15.372 20.6145V15.6644H17.0063Z" fill="white"/>
</svg>
