<svg width="24" height="24" viewBox="0 0 24 24" fill="none" xmlns="http://www.w3.org/2000/svg">
<rect width="24" height="24" rx="12" fill="black"/>
<path d="M7.464 7.46412C7.63275 7.29558 7.8615 7.20092 8.1 7.20092C8.3385 7.20092 8.56725 7.29558 8.736 7.46412L12 10.7269L15.264 7.46412C15.3475 7.3806 15.4467 7.31435 15.5558 7.26915C15.6649 7.22395 15.7819 7.20068 15.9 7.20068C16.0181 7.20068 16.1351 7.22395 16.2442 7.26915C16.3533 7.31435 16.4525 7.3806 16.536 7.46412C16.6195 7.54764 16.6858 7.6468 16.731 7.75592C16.7762 7.86505 16.7994 7.98201 16.7994 8.10012C16.7994 8.21824 16.7762 8.3352 16.731 8.44432C16.6858 8.55345 16.6195 8.6526 16.536 8.73612L13.2732 12.0001L16.536 15.2641C16.7047 15.4328 16.7994 15.6616 16.7994 15.9001C16.7994 16.1387 16.7047 16.3674 16.536 16.5361C16.3673 16.7048 16.1385 16.7996 15.9 16.7996C15.6615 16.7996 15.4327 16.7048 15.264 16.5361L12 13.2733L8.736 16.5361C8.56732 16.7048 8.33855 16.7996 8.1 16.7996C7.86146 16.7996 7.63268 16.7048 7.464 16.5361C7.29532 16.3674 7.20056 16.1387 7.20056 15.9001C7.20056 15.6616 7.29532 15.4328 7.464 15.2641L10.7268 12.0001L7.464 8.73612C7.29546 8.56737 7.20079 8.33862 7.20079 8.10012C7.20079 7.86162 7.29546 7.63287 7.464 7.46412Z" fill="white"/>
</svg>
