<svg width="30" height="30" viewBox="0 0 30 30" fill="none" xmlns="http://www.w3.org/2000/svg">
<path d="M0 15C0 6.71573 6.71573 0 15 0V0C23.2843 0 30 6.71573 30 15V15C30 23.2843 23.2843 30 15 30V30C6.71573 30 0 23.2843 0 15V15Z" fill="#121212"/>
<path d="M15.5429 14.0817L20.0106 9H18.9521L15.071 13.4115L11.9734 9H8.3999L13.0851 15.6715L8.3999 21H9.45848L13.5545 16.3403L16.8264 21H20.3999L15.5429 14.0817ZM14.0926 15.7301L13.6171 15.0653L9.84022 9.78088H11.4664L14.5154 14.0472L14.9888 14.7119L18.9516 20.2572H17.3254L14.0926 15.7301Z" fill="white"/>
</svg>
