<svg width="18" height="18" viewBox="0 0 18 18" fill="none" xmlns="http://www.w3.org/2000/svg">
<path fill-rule="evenodd" clip-rule="evenodd" d="M13.6381 12.2913C14.8254 10.7606 15.385 8.83503 15.203 6.90636C15.021 4.97768 14.111 3.1908 12.6583 1.90922C11.2055 0.627637 9.31913 -0.0523632 7.38281 0.00755453C5.4465 0.0674722 3.60574 0.862807 2.23502 2.23176C0.863103 3.60166 0.0651678 5.44313 0.00381831 7.38091C-0.0575312 9.3187 0.622323 11.207 1.90484 12.6609C3.18735 14.1148 4.976 15.025 6.90629 15.206C8.83659 15.3869 10.7632 14.8251 12.2936 13.6348L12.3346 13.6777L16.3737 17.7177C16.4621 17.8062 16.5671 17.8763 16.6827 17.9242C16.7983 17.9721 16.9222 17.9967 17.0473 17.9967C17.1724 17.9967 17.2963 17.9721 17.4119 17.9242C17.5275 17.8763 17.6325 17.8062 17.721 17.7177C17.8094 17.6292 17.8796 17.5242 17.9275 17.4086C17.9754 17.293 18 17.1692 18 17.044C18 16.9189 17.9754 16.7951 17.9275 16.6795C17.8796 16.5639 17.8094 16.4589 17.721 16.3704L13.6809 12.3313C13.667 12.3176 13.6527 12.3043 13.6381 12.2913ZM11.6614 3.57906C12.199 4.10797 12.6266 4.73808 12.9194 5.43305C13.2123 6.12802 13.3646 6.8741 13.3677 7.62824C13.3708 8.38239 13.2245 9.12968 12.9373 9.82701C12.6501 10.5243 12.2277 11.1579 11.6944 11.6912C11.1612 12.2244 10.5276 12.6469 9.83027 12.934C9.13294 13.2212 8.38565 13.3675 7.6315 13.3644C6.87736 13.3614 6.13128 13.209 5.43631 12.9161C4.74134 12.6233 4.11123 12.1957 3.58233 11.6581C2.52535 10.5838 1.93571 9.13534 1.94185 7.62824C1.94799 6.12114 2.5494 4.67752 3.61509 3.61183C4.68078 2.54614 6.1244 1.94472 7.6315 1.93859C9.13861 1.93245 10.5871 2.52209 11.6614 3.57906Z" fill="#AAAAAA"/>
</svg>
