<svg width="42" height="42" viewBox="0 0 42 42" fill="none" xmlns="http://www.w3.org/2000/svg">
<path d="M37.3785 24.6112C37.3785 28.8084 35.5658 31.981 32.6307 34.1178C29.6816 36.2647 25.5761 37.38 20.9985 37.38C16.4209 37.38 12.3154 36.2647 9.36629 34.1178C6.43121 31.981 4.61849 28.8084 4.61849 24.6112C4.61849 21.021 5.94524 17.0851 8.17934 13.8385C10.4141 10.5909 13.5257 8.0763 17.0607 7.26247C17.1527 7.2413 17.2429 7.19281 17.3138 7.11286C17.3808 7.03716 17.4116 6.95477 17.4259 6.89206C17.4519 6.77853 17.437 6.67134 17.4269 6.61296C17.4102 6.51632 17.3745 6.39542 17.3468 6.30149C17.3398 6.2777 17.3333 6.25563 17.3277 6.23614C17.3233 6.22049 17.3191 6.2056 17.3153 6.19144C17.3656 6.2278 17.4246 6.28251 17.4927 6.3588C17.5585 6.43239 17.6051 6.49184 17.6552 6.55583C17.6913 6.60191 17.7293 6.65036 17.7776 6.70813C17.8225 6.76187 17.883 6.83062 17.952 6.88625C18.0049 6.92893 18.1598 7.04532 18.3729 7.0133C18.5679 6.984 18.7063 6.86223 18.7855 6.77988C18.8734 6.68848 18.953 6.57625 19.0235 6.46679C19.1139 6.32641 19.2145 6.14924 19.3153 5.97184C19.3669 5.8809 19.4186 5.7899 19.469 5.70376C19.6275 5.43267 19.7909 5.17607 19.9668 4.97174C20.0454 4.8804 20.1208 4.80634 20.1928 4.74821C20.2118 4.79646 20.2289 4.85046 20.244 4.91068C20.2927 5.10463 20.3119 5.32531 20.3255 5.55896C20.3275 5.59318 20.3294 5.62877 20.3314 5.6652C20.3413 5.85269 20.3525 6.06273 20.3854 6.22607C20.4053 6.32436 20.4421 6.45933 20.5281 6.57703C20.6308 6.71773 20.7939 6.81807 20.9985 6.81807C25.4888 6.81807 29.5811 9.12797 32.562 12.5297C35.5443 15.9329 37.3785 20.3904 37.3785 24.6112Z" fill="url(#paint0_linear_1787_19733)" stroke="#424242" stroke-width="0.84"/>
<ellipse cx="14.2774" cy="20.7897" rx="1.68" ry="1.89" fill="#424242"/>
<ellipse cx="27.3013" cy="20.7897" rx="1.68" ry="1.89" fill="#424242"/>
<ellipse cx="20.9968" cy="28.1394" rx="3.78" ry="2.52" fill="#FCD959"/>
<path d="M15.7823 10.0796C15.963 10.7516 15.9992 12.1628 14.698 12.4316" stroke="#FF6F6F" stroke-width="1.176" stroke-linecap="round"/>
<path d="M18.3178 10.0798C18.1371 10.7518 18.1009 12.163 19.4021 12.4318" stroke="#FF6F6F" stroke-width="1.176" stroke-linecap="round"/>
<path d="M15.3226 15.0265C15.8007 14.5152 16.9796 13.7371 17.8702 14.7147" stroke="#FF6F6F" stroke-width="1.176" stroke-linecap="round"/>
<defs>
<linearGradient id="paint0_linear_1787_19733" x1="20.9985" y1="4.19995" x2="20.9985" y2="37.7999" gradientUnits="userSpaceOnUse">
<stop stop-color="#FFD0D0" stop-opacity="0.5"/>
<stop offset="0.301596" stop-color="#FFBEBE" stop-opacity="0.8"/>
<stop offset="0.525" stop-color="white"/>
<stop offset="1" stop-color="white"/>
</linearGradient>
</defs>
</svg>
