<svg width="80" height="80" viewBox="0 0 80 80" fill="none" xmlns="http://www.w3.org/2000/svg">
<g filter="url(#filter0_d_1264_38152)">
<g clip-path="url(#clip0_1264_38152)">
<rect x="12" y="12" width="56" height="56" rx="28" fill="#FFEBD4"/>
<path d="M62.7717 50.842C63.87 62.2455 54.5508 69.1389 42.3491 70.3141C30.1474 71.4894 19.6838 66.5014 18.5854 55.098C17.6516 45.4027 23.6998 33.2759 33.1268 30.1278C33.4127 30.0323 32.5677 28.9524 32.9896 28.7034C33.8336 28.2053 34.5697 29.695 34.862 29.6219C35.4354 29.4784 35.9236 26.7536 37.2094 26.213C38.1727 26.9538 37.7766 29.0759 38.3715 29.0185C50.5732 27.8433 61.6733 39.4386 62.7717 50.842Z" fill="white"/>
<ellipse cx="40.772" cy="53.9449" rx="4.25507" ry="3.33506" transform="rotate(-5.50169 40.772 53.9449)" fill="#FCBE59"/>
<g filter="url(#filter1_f_1264_38152)">
<ellipse cx="26.7556" cy="53.5613" rx="5.52009" ry="4.02507" transform="rotate(-5.50169 26.7556 53.5613)" fill="#FFC6C6" fill-opacity="0.24"/>
</g>
<g filter="url(#filter2_f_1264_38152)">
<ellipse cx="54.5729" cy="50.8816" rx="5.52009" ry="4.02507" transform="rotate(-5.50169 54.5729 50.8816)" fill="#FFC6C6" fill-opacity="0.24"/>
</g>
<path d="M46.5531 45.5903C46.5531 45.5903 46.6905 44.0174 48.0641 43.885C49.3233 43.7638 49.7584 45.2816 49.7584 45.2816" stroke="#505050" stroke-width="1.15002" stroke-linecap="round"/>
<path d="M30.2983 47.1547C30.2983 47.1547 30.4356 45.5818 31.8093 45.4495C33.0685 45.3282 33.5035 46.846 33.5035 46.846" stroke="#505050" stroke-width="1.15002" stroke-linecap="round"/>
</g>
</g>
<defs>
<filter id="filter0_d_1264_38152" x="0" y="0" width="80" height="80" filterUnits="userSpaceOnUse" color-interpolation-filters="sRGB">
<feFlood flood-opacity="0" result="BackgroundImageFix"/>
<feColorMatrix in="SourceAlpha" type="matrix" values="0 0 0 0 0 0 0 0 0 0 0 0 0 0 0 0 0 0 127 0" result="hardAlpha"/>
<feOffset/>
<feGaussianBlur stdDeviation="6"/>
<feComposite in2="hardAlpha" operator="out"/>
<feColorMatrix type="matrix" values="0 0 0 0 0 0 0 0 0 0 0 0 0 0 0 0 0 0 0.1 0"/>
<feBlend mode="normal" in2="BackgroundImageFix" result="effect1_dropShadow_1264_38152"/>
<feBlend mode="normal" in="SourceGraphic" in2="effect1_dropShadow_1264_38152" result="shape"/>
</filter>
<filter id="filter1_f_1264_38152" x="18.487" y="46.7595" width="16.5367" height="13.6041" filterUnits="userSpaceOnUse" color-interpolation-filters="sRGB">
<feFlood flood-opacity="0" result="BackgroundImageFix"/>
<feBlend mode="normal" in="SourceGraphic" in2="BackgroundImageFix" result="shape"/>
<feGaussianBlur stdDeviation="1.38002" result="effect1_foregroundBlur_1264_38152"/>
</filter>
<filter id="filter2_f_1264_38152" x="46.3044" y="44.0798" width="16.5367" height="13.6041" filterUnits="userSpaceOnUse" color-interpolation-filters="sRGB">
<feFlood flood-opacity="0" result="BackgroundImageFix"/>
<feBlend mode="normal" in="SourceGraphic" in2="BackgroundImageFix" result="shape"/>
<feGaussianBlur stdDeviation="1.38002" result="effect1_foregroundBlur_1264_38152"/>
</filter>
<clipPath id="clip0_1264_38152">
<rect x="12" y="12" width="56" height="56" rx="28" fill="white"/>
</clipPath>
</defs>
</svg>
