<svg width="42" height="42" viewBox="0 0 42 42" fill="none" xmlns="http://www.w3.org/2000/svg">
<path d="M37.3792 24.6112C37.3792 28.8084 35.5665 31.981 32.6314 34.1178C29.6823 36.2647 25.5768 37.38 20.9992 37.38C16.4216 37.38 12.3161 36.2647 9.36702 34.1178C6.43194 31.981 4.61922 28.8084 4.61922 24.6112C4.61922 21.021 5.94598 17.0851 8.18007 13.8385C10.4148 10.5909 13.5264 8.0763 17.0614 7.26247C17.1534 7.2413 17.2436 7.19281 17.3145 7.11286C17.3816 7.03716 17.4123 6.95477 17.4267 6.89206C17.4527 6.77853 17.4377 6.67134 17.4276 6.61296C17.4109 6.51632 17.3753 6.39542 17.3476 6.30149C17.3405 6.2777 17.334 6.25563 17.3285 6.23614C17.324 6.22049 17.3199 6.2056 17.316 6.19144C17.3663 6.2278 17.4253 6.28251 17.4935 6.3588C17.5592 6.43239 17.6058 6.49184 17.656 6.55583C17.6921 6.60191 17.73 6.65036 17.7783 6.70813C17.8233 6.76187 17.8837 6.83062 17.9527 6.88625C18.0057 6.92893 18.1605 7.04532 18.3736 7.0133C18.5686 6.984 18.707 6.86223 18.7862 6.77988C18.8741 6.68848 18.9537 6.57625 19.0242 6.46679C19.1146 6.32641 19.2153 6.14924 19.316 5.97184C19.3677 5.8809 19.4194 5.7899 19.4697 5.70376C19.6282 5.43267 19.7917 5.17607 19.9675 4.97174C20.0461 4.8804 20.1215 4.80634 20.1935 4.74821C20.2125 4.79646 20.2296 4.85046 20.2448 4.91068C20.2935 5.10463 20.3127 5.32531 20.3263 5.55896C20.3283 5.59318 20.3302 5.62877 20.3321 5.6652C20.342 5.85269 20.3532 6.06273 20.3862 6.22607C20.406 6.32436 20.4429 6.45933 20.5288 6.57703C20.6315 6.71773 20.7946 6.81807 20.9992 6.81807C25.4895 6.81807 29.5818 9.12797 32.5627 12.5297C35.545 15.9329 37.3792 20.3904 37.3792 24.6112Z" fill="white" stroke="#424242" stroke-width="0.84"/>
<ellipse cx="14.2816" cy="20.7899" rx="1.68" ry="1.89" fill="#424242"/>
<ellipse cx="27.3011" cy="20.7899" rx="1.68" ry="1.89" fill="#424242"/>
<ellipse cx="20.9975" cy="28.1399" rx="3.78" ry="2.52" fill="#FCD959"/>
<circle cx="14.0714" cy="20.37" r="0.63" fill="white"/>
<circle cx="14.9092" cy="21.6299" r="0.21" fill="white"/>
<circle cx="27.9287" cy="21.6299" r="0.21" fill="white"/>
<circle cx="27.0909" cy="20.37" r="0.63" fill="white"/>
<path d="M6.00371 7.60793C6.31112 7.23807 6.56059 6.66498 6.72422 6.22578C6.72422 6.22577 6.72423 6.22575 6.72423 6.22573C6.72428 6.22544 6.72452 6.22404 6.72931 6.22122C6.73595 6.21732 6.74838 6.21308 6.76471 6.21309C6.78103 6.21309 6.79349 6.21733 6.80017 6.22126C6.80499 6.22409 6.80527 6.22553 6.80533 6.22585C6.80533 6.22587 6.80534 6.22589 6.80534 6.2259C6.96804 6.66227 7.21614 7.23031 7.52563 7.60703C7.86029 8.01441 8.48045 8.41836 8.83678 8.6333C8.83852 8.63435 8.83934 8.63529 8.84011 8.63668C8.84114 8.63853 8.84222 8.64166 8.84234 8.64568C8.84247 8.64968 8.8416 8.65267 8.84084 8.65427C8.84032 8.65535 8.8398 8.65607 8.83833 8.65708C8.48431 8.89973 7.86269 9.35086 7.52662 9.75359C7.21419 10.128 6.95641 10.6706 6.79095 11.0689C6.79037 11.0703 6.78982 11.0715 6.7863 11.0736C6.78158 11.0764 6.77276 11.0795 6.76111 11.0796C6.74947 11.0797 6.74081 11.0767 6.73636 11.0741C6.73322 11.0722 6.73281 11.0713 6.7323 11.0701L6.73227 11.07C6.5616 10.6662 6.2992 10.1134 6.00442 9.75475C5.64534 9.31783 5.01932 8.89532 4.64327 8.6616L4.53685 8.83282L4.64327 8.6616C4.64161 8.66057 4.6407 8.65961 4.63971 8.65762C4.6384 8.65501 4.63705 8.65041 4.6372 8.64444C4.63736 8.63848 4.63895 8.63385 4.64048 8.63115C4.64166 8.62906 4.64276 8.62802 4.64457 8.62702C5.02324 8.41669 5.65069 8.03265 6.00371 7.60793Z" fill="#FFD025" stroke="#F89724" stroke-width="0.4032" stroke-linecap="round"/>
<path d="M35.3729 8.75087C35.6035 8.47347 35.7906 8.04366 35.9133 7.71425C35.9133 7.71415 35.9132 7.71311 35.9171 7.71084C35.9221 7.70791 35.9314 7.70473 35.9436 7.70474C35.9559 7.70474 35.9652 7.70792 35.9702 7.71087C35.9739 7.71299 35.9741 7.71407 35.9741 7.71431C35.9741 7.71433 35.9741 7.71434 35.9741 7.71435C36.0961 8.04163 36.2822 8.46765 36.5143 8.7502C36.7653 9.05573 37.2305 9.35869 37.4977 9.5199C37.499 9.52068 37.4996 9.52139 37.5002 9.52243C37.501 9.52382 37.5018 9.52617 37.5019 9.52918C37.502 9.53219 37.5013 9.53443 37.5007 9.53562C37.5004 9.53644 37.5 9.53698 37.4989 9.53773C37.2334 9.71972 36.7671 10.0581 36.5151 10.3601C36.2808 10.6409 36.0874 11.0479 35.9633 11.3466C35.9629 11.3476 35.9625 11.3486 35.9598 11.3501C35.9563 11.3522 35.9497 11.3546 35.941 11.3546C35.9322 11.3547 35.9257 11.3524 35.9224 11.3505C35.92 11.3491 35.9197 11.3484 35.9193 11.3475L35.9193 11.3474C35.7913 11.0446 35.5945 10.63 35.3734 10.361C35.1041 10.0333 34.6346 9.71641 34.3526 9.54112C34.3513 9.54035 34.3506 9.53963 34.3499 9.53814C34.3489 9.53618 34.3479 9.53273 34.348 9.52825C34.3481 9.52378 34.3493 9.52031 34.3505 9.51829C34.3514 9.51671 34.3522 9.51594 34.3535 9.51519C34.6375 9.35744 35.1081 9.06941 35.3729 8.75087Z" fill="#FFD025" stroke="#F89724" stroke-width="0.3024" stroke-linecap="round"/>
<path d="M31.5622 6.53394C31.7159 6.34902 31.8406 6.06247 31.9224 5.84287C31.9224 5.84286 31.9224 5.84286 31.9224 5.84284C31.9224 5.8427 31.9226 5.842 31.925 5.84059C31.9283 5.83864 31.9345 5.83652 31.9427 5.83652C31.9508 5.83652 31.957 5.83865 31.9604 5.84061C31.9628 5.84203 31.9629 5.84274 31.963 5.8429C31.963 5.84292 31.963 5.84293 31.963 5.84293C32.0443 6.06112 32.1684 6.34513 32.3231 6.5335C32.4904 6.73719 32.8005 6.93916 32.9787 7.04663C32.9796 7.04715 32.9813 7.04855 32.9815 7.05282C32.9815 7.05482 32.9811 7.05632 32.9807 7.05711C32.9805 7.05766 32.9802 7.05802 32.9795 7.05852C32.8025 7.17985 32.4916 7.40541 32.3236 7.60677C32.1674 7.79397 32.0385 8.06527 31.9558 8.26442C31.9555 8.26513 31.9552 8.26575 31.9535 8.26679C31.9511 8.26819 31.9467 8.26975 31.9409 8.26978C31.935 8.26981 31.9307 8.26831 31.9285 8.26702C31.9269 8.2661 31.9267 8.26562 31.9265 8.26502L31.9264 8.26498C31.8411 8.06308 31.7099 7.7867 31.5625 7.60736C31.383 7.3889 31.07 7.17764 30.8819 7.06078C30.8811 7.06026 30.8807 7.05978 30.8802 7.05879C30.8795 7.05748 30.8788 7.05518 30.8789 7.0522C30.879 7.04922 30.8798 7.04691 30.8805 7.04556C30.8811 7.04451 30.8817 7.04399 30.8826 7.04349C31.0719 6.93832 31.3856 6.74631 31.5622 6.53394Z" fill="#FFD025" stroke="#F89724" stroke-width="0.2016" stroke-linecap="round"/>
<path d="M10.9804 6.53394C11.1341 6.34902 11.2588 6.06247 11.3406 5.84287C11.3406 5.84286 11.3406 5.84286 11.3406 5.84284C11.3407 5.8427 11.3408 5.842 11.3432 5.84059C11.3465 5.83864 11.3527 5.83652 11.3609 5.83652C11.369 5.83652 11.3753 5.83865 11.3786 5.84061C11.381 5.84203 11.3811 5.84274 11.3812 5.8429C11.3812 5.84292 11.3812 5.84293 11.3812 5.84293C11.4625 6.06112 11.5866 6.34513 11.7413 6.5335C11.9087 6.73719 12.2187 6.93916 12.3969 7.04663C12.3978 7.04715 12.3996 7.04855 12.3997 7.05282C12.3998 7.05482 12.3993 7.05632 12.3989 7.05711C12.3987 7.05766 12.3984 7.05802 12.3977 7.05852C12.2207 7.17985 11.9099 7.40541 11.7418 7.60677C11.5856 7.79397 11.4567 8.06527 11.374 8.26442C11.3737 8.26513 11.3734 8.26575 11.3717 8.26679C11.3693 8.26819 11.3649 8.26975 11.3591 8.26978C11.3532 8.26981 11.3489 8.26831 11.3467 8.26702C11.3451 8.2661 11.3449 8.26562 11.3447 8.26502L11.3446 8.26498C11.2593 8.06308 11.1281 7.7867 10.9807 7.60736C10.8012 7.3889 10.4882 7.17764 10.3002 7.06078C10.2993 7.06026 10.2989 7.05978 10.2984 7.05879C10.2977 7.05748 10.297 7.05518 10.2971 7.0522C10.2972 7.04922 10.298 7.04691 10.2988 7.04556C10.2993 7.04451 10.2999 7.04399 10.3008 7.04349C10.4901 6.93832 10.8039 6.74631 10.9804 6.53394Z" fill="#FFD025" stroke="#F89724" stroke-width="0.2016" stroke-linecap="round"/>
<g filter="url(#filter0_f_1787_19792)">
<ellipse cx="10.4148" cy="26.88" rx="3.696" ry="1.68" fill="#FFD9B0" fill-opacity="0.3"/>
</g>
<g filter="url(#filter1_f_1787_19792)">
<ellipse cx="31.8366" cy="26.88" rx="3.696" ry="1.68" fill="#FFD9B0" fill-opacity="0.3"/>
</g>
<defs>
<filter id="filter0_f_1787_19792" x="4.77326" y="23.2545" width="11.2831" height="7.25109" filterUnits="userSpaceOnUse" color-interpolation-filters="sRGB">
<feFlood flood-opacity="0" result="BackgroundImageFix"/>
<feBlend mode="normal" in="SourceGraphic" in2="BackgroundImageFix" result="shape"/>
<feGaussianBlur stdDeviation="0.972745" result="effect1_foregroundBlur_1787_19792"/>
</filter>
<filter id="filter1_f_1787_19792" x="26.1951" y="23.2545" width="11.2831" height="7.25109" filterUnits="userSpaceOnUse" color-interpolation-filters="sRGB">
<feFlood flood-opacity="0" result="BackgroundImageFix"/>
<feBlend mode="normal" in="SourceGraphic" in2="BackgroundImageFix" result="shape"/>
<feGaussianBlur stdDeviation="0.972745" result="effect1_foregroundBlur_1787_19792"/>
</filter>
</defs>
</svg>
