<svg width="42" height="42" viewBox="0 0 42 42" fill="none" xmlns="http://www.w3.org/2000/svg">
<path d="M37.3792 24.6112C37.3792 28.8084 35.5665 31.981 32.6314 34.1178C29.6823 36.2647 25.5768 37.38 20.9992 37.38C16.4216 37.38 12.3161 36.2647 9.36702 34.1178C6.43194 31.981 4.61922 28.8084 4.61922 24.6112C4.61922 21.021 5.94598 17.0851 8.18007 13.8385C10.4148 10.5909 13.5264 8.0763 17.0614 7.26247C17.1534 7.2413 17.2436 7.19281 17.3145 7.11286C17.3816 7.03716 17.4123 6.95477 17.4267 6.89206C17.4527 6.77853 17.4377 6.67134 17.4276 6.61296C17.4109 6.51632 17.3753 6.39542 17.3476 6.30149C17.3405 6.2777 17.334 6.25563 17.3285 6.23614C17.324 6.22049 17.3199 6.2056 17.316 6.19144C17.3663 6.2278 17.4253 6.28251 17.4935 6.3588C17.5592 6.43239 17.6058 6.49184 17.656 6.55583C17.6921 6.60191 17.73 6.65036 17.7783 6.70813C17.8233 6.76187 17.8837 6.83062 17.9527 6.88625C18.0057 6.92893 18.1605 7.04532 18.3736 7.0133C18.5686 6.984 18.707 6.86223 18.7862 6.77988C18.8741 6.68848 18.9537 6.57625 19.0242 6.46679C19.1146 6.32641 19.2153 6.14924 19.316 5.97184C19.3677 5.8809 19.4194 5.7899 19.4697 5.70376C19.6282 5.43267 19.7917 5.17607 19.9675 4.97174C20.0461 4.8804 20.1215 4.80634 20.1935 4.74821C20.2125 4.79646 20.2296 4.85046 20.2448 4.91068C20.2935 5.10463 20.3127 5.32531 20.3263 5.55896C20.3283 5.59318 20.3302 5.62877 20.3321 5.6652C20.342 5.85269 20.3532 6.06273 20.3862 6.22607C20.406 6.32436 20.4429 6.45933 20.5288 6.57703C20.6315 6.71773 20.7946 6.81807 20.9992 6.81807C25.4895 6.81807 29.5818 9.12797 32.5627 12.5297C35.545 15.9329 37.3792 20.3904 37.3792 24.6112Z" fill="white" stroke="#424242" stroke-width="0.84"/>
<ellipse cx="14.2816" cy="20.7899" rx="1.68" ry="1.89" fill="#424242"/>
<ellipse cx="27.3011" cy="20.7899" rx="1.68" ry="1.89" fill="#424242"/>
<ellipse cx="20.9975" cy="28.1399" rx="3.78" ry="2.52" fill="#FCD959"/>
<path d="M31.6248 6.34792C31.9322 5.97806 32.1817 5.40497 32.3453 4.96577C32.3453 4.96576 32.3453 4.96574 32.3453 4.96572C32.3454 4.96543 32.3456 4.96403 32.3504 4.96121C32.357 4.95731 32.3695 4.95307 32.3858 4.95308C32.4021 4.95308 32.4146 4.95732 32.4213 4.96125C32.4261 4.96408 32.4264 4.96552 32.4264 4.96584C32.4264 4.96586 32.4264 4.96588 32.4264 4.96589C32.5891 5.40226 32.8372 5.9703 33.1467 6.34702C33.4814 6.7544 34.1015 7.15835 34.4579 7.37329C34.4596 7.37434 34.4604 7.37528 34.4612 7.37667C34.4622 7.37852 34.4633 7.38165 34.4634 7.38567C34.4636 7.38968 34.4627 7.39266 34.4619 7.39426C34.4614 7.39534 34.4609 7.39606 34.4594 7.39707C34.1054 7.63972 33.4838 8.09085 33.1477 8.49358C32.8353 8.86796 32.5775 9.41056 32.412 9.80887C32.4115 9.81029 32.4109 9.81153 32.4074 9.81362C32.4027 9.81641 32.3938 9.81952 32.3822 9.81959C32.3706 9.81966 32.3619 9.81664 32.3575 9.81406C32.3543 9.81224 32.3539 9.81127 32.3534 9.81007L32.3534 9.80999C32.1827 9.4062 31.9203 8.85342 31.6255 8.49474C31.2664 8.05782 30.6404 7.63531 30.2644 7.40159L30.1579 7.57281L30.2644 7.40159C30.2627 7.40056 30.2618 7.3996 30.2608 7.39761C30.2595 7.395 30.2581 7.3904 30.2583 7.38443C30.2585 7.37847 30.26 7.37384 30.2616 7.37114C30.2628 7.36905 30.2639 7.36801 30.2657 7.36701C30.6443 7.15668 31.2718 6.77264 31.6248 6.34792Z" fill="#FFD025" stroke="#F89724" stroke-width="0.4032" stroke-linecap="round"/>
<path d="M34.9549 8.75087C35.1855 8.47347 35.3726 8.04366 35.4953 7.71425C35.4954 7.71415 35.4953 7.71311 35.4991 7.71084C35.5041 7.70791 35.5134 7.70473 35.5257 7.70474C35.5379 7.70474 35.5473 7.70792 35.5523 7.71087C35.5559 7.71299 35.5561 7.71407 35.5561 7.71431C35.5561 7.71433 35.5562 7.71434 35.5562 7.71435C35.6782 8.04163 35.8643 8.46765 36.0964 8.7502C36.3474 9.05573 36.8125 9.35869 37.0797 9.5199C37.081 9.52068 37.0817 9.52139 37.0822 9.52243C37.083 9.52382 37.0838 9.52617 37.0839 9.52918C37.084 9.53219 37.0833 9.53443 37.0828 9.53562C37.0824 9.53644 37.082 9.53698 37.0809 9.53773C36.8154 9.71972 36.3492 10.0581 36.0971 10.3601C35.8628 10.6409 35.6695 11.0479 35.5454 11.3466C35.5449 11.3476 35.5445 11.3486 35.5419 11.3501C35.5383 11.3522 35.5317 11.3546 35.523 11.3546C35.5142 11.3547 35.5078 11.3524 35.5044 11.3505C35.5021 11.3491 35.5018 11.3484 35.5014 11.3475L35.5013 11.3474C35.3733 11.0446 35.1766 10.63 34.9555 10.361C34.6862 10.0333 34.2166 9.71641 33.9346 9.54112C33.9334 9.54035 33.9327 9.53963 33.9319 9.53814C33.9309 9.53618 33.9299 9.53273 33.93 9.52825C33.9302 9.52378 33.9314 9.52031 33.9325 9.51829C33.9334 9.51671 33.9342 9.51594 33.9356 9.51519C34.2196 9.35744 34.6902 9.06941 34.9549 8.75087Z" fill="#FFD025" stroke="#F89724" stroke-width="0.3024" stroke-linecap="round"/>
</svg>
