<svg width="25" height="24" viewBox="0 0 24 24" fill="none" xmlns="http://www.w3.org/2000/svg">
<path fill-rule="evenodd" clip-rule="evenodd" d="M24.02 12.2729C24.02 11.422 23.9436 10.6038 23.8018 9.81836H12.5V14.4602H18.9582C18.68 15.9602 17.8345 17.2311 16.5636 18.082V21.0929H20.4418C22.7109 19.0038 24.02 15.9274 24.02 12.2729Z" fill="#4285F4"/>
<path fill-rule="evenodd" clip-rule="evenodd" d="M12.4985 24.0003C15.7385 24.0003 18.4549 22.9257 20.4404 21.093L16.5622 18.0821C15.4876 18.8021 14.1131 19.2275 12.4985 19.2275C9.37308 19.2275 6.72763 17.1166 5.78399 14.2803H1.7749V17.3894C3.74945 21.3112 7.80763 24.0003 12.4985 24.0003Z" fill="#34A853"/>
<path fill-rule="evenodd" clip-rule="evenodd" d="M5.78545 14.2794C5.54545 13.5594 5.40909 12.7904 5.40909 11.9994C5.40909 11.2085 5.54545 10.4394 5.78545 9.71944V6.61035H1.77636C0.963636 8.23035 0.5 10.0631 0.5 11.9994C0.5 13.9358 0.963636 15.7685 1.77636 17.3885L5.78545 14.2794Z" fill="#FBBC05"/>
<path fill-rule="evenodd" clip-rule="evenodd" d="M12.4985 4.77273C14.2604 4.77273 15.8422 5.37818 17.0858 6.56727L20.5276 3.12545C18.4494 1.18909 15.7331 0 12.4985 0C7.80763 0 3.74945 2.68909 1.7749 6.61091L5.78399 9.72C6.72763 6.88364 9.37308 4.77273 12.4985 4.77273Z" fill="#EA4335"/>
</svg>
