<svg width="28" height="28" viewBox="0 0 28 28" fill="none" xmlns="http://www.w3.org/2000/svg">
<rect y="-0.00219727" width="28.0044" height="28.0044" rx="14.0022" fill="#FFF6ED"/>
<path fill-rule="evenodd" clip-rule="evenodd" d="M15.5022 9.4978C15.5022 8.66938 14.8306 7.9978 14.0022 7.9978C13.1738 7.9978 12.5022 8.66938 12.5022 9.4978V12.5H9.5C8.67157 12.5 8 13.1716 8 14C8 14.8284 8.67157 15.5 9.5 15.5H12.5022V18.5022C12.5022 19.3306 13.1738 20.0022 14.0022 20.0022C14.8306 20.0022 15.5022 19.3306 15.5022 18.5022V15.5H18.5044C19.3328 15.5 20.0044 14.8284 20.0044 14C20.0044 13.1716 19.3328 12.5 18.5044 12.5H15.5022V9.4978Z" fill="#FFB271"/>
</svg>
