<svg width="90" height="90" viewBox="0 0 90 90" fill="none" xmlns="http://www.w3.org/2000/svg">
<mask id="mask0_1350_36888" style="mask-type:luminance" maskUnits="userSpaceOnUse" x="4" y="3" width="84" height="84">
<path d="M45.4991 82.501C50.4245 82.5071 55.3026 81.5399 59.8531 79.6549C64.4036 77.77 68.5369 75.0045 72.0153 71.5173C75.5025 68.0388 78.268 63.9056 80.153 59.3551C82.0379 54.8046 83.0051 49.9265 82.9991 45.001C83.0051 40.0756 82.0379 35.1974 80.153 30.6469C78.268 26.0964 75.5025 21.9632 72.0153 18.4848C68.5369 14.9976 64.4036 12.232 59.8531 10.3471C55.3026 8.46215 50.4245 7.49493 45.4991 7.501C40.5736 7.49493 35.6955 8.46215 31.145 10.3471C26.5945 12.232 22.4613 14.9976 18.9828 18.4848C15.4956 21.9632 12.7301 26.0964 10.8451 30.6469C8.9602 35.1974 7.99298 40.0756 7.99905 45.001C7.99298 49.9265 8.9602 54.8046 10.8451 59.3551C12.7301 63.9056 15.4956 68.0388 18.9828 71.5173C22.4613 75.0045 26.5945 77.77 31.145 79.6549C35.6955 81.5399 40.5736 82.5071 45.4991 82.501Z" fill="white" stroke="white" stroke-width="7.5" stroke-linejoin="round"/>
<path d="M30.499 45.001L41.749 56.251L64.249 33.751" stroke="black" stroke-width="7.5" stroke-linecap="round" stroke-linejoin="round"/>
</mask>
<g mask="url(#mask0_1350_36888)">
<path d="M0.5 0H90.5V90H0.5V0Z" fill="#FF7E29"/>
</g>
</svg>
