<svg width="30" height="30" viewBox="0 0 30 30" fill="none" xmlns="http://www.w3.org/2000/svg">
<rect width="30" height="30" rx="15" fill="#FFF6ED"/>
<path d="M10.14 15C10.14 13.974 10.974 13.14 12 13.14H14.4V12H12C10.344 12 9 13.344 9 15C9 16.656 10.344 18 12 18H14.4V16.86H12C10.974 16.86 10.14 16.026 10.14 15ZM12.6 15.6H17.4V14.4H12.6V15.6ZM18 12H15.6V13.14H18C19.026 13.14 19.86 13.974 19.86 15C19.86 16.026 19.026 16.86 18 16.86H15.6V18H18C19.656 18 21 16.656 21 15C21 13.344 19.656 12 18 12Z" fill="#FF7E29"/>
</svg>
