<svg width="19" height="24" viewBox="0 0 19 24" fill="none" xmlns="http://www.w3.org/2000/svg">
<path d="M9.76719 5.66193C10.7656 5.66193 12.0172 4.96619 12.7625 4.03853C13.4375 3.19785 13.9297 2.02378 13.9297 0.849722C13.9297 0.690282 13.9156 0.530842 13.8875 0.400391C12.7766 0.443874 11.4406 1.1686 10.6391 2.13974C10.0063 2.87897 9.42969 4.03853 9.42969 5.22709C9.42969 5.40103 9.45781 5.57496 9.47188 5.63294C9.54219 5.64744 9.65469 5.66193 9.76719 5.66193ZM6.25156 23.2004C7.61563 23.2004 8.22031 22.2582 9.92188 22.2582C11.6516 22.2582 12.0312 23.1714 13.55 23.1714C15.0406 23.1714 16.0391 21.7509 16.9813 20.3594C18.0359 18.765 18.4719 17.1996 18.5 17.1272C18.4016 17.0982 15.5469 15.8951 15.5469 12.5179C15.5469 9.58996 17.7969 8.27096 17.9234 8.16949C16.4328 5.96631 14.1688 5.90834 13.55 5.90834C11.8766 5.90834 10.5125 6.95195 9.65469 6.95195C8.72656 6.95195 7.50313 5.96632 6.05469 5.96632C3.29844 5.96632 0.5 8.31444 0.5 12.7498C0.5 15.5038 1.54063 18.4172 2.82031 20.3015C3.91719 21.8959 4.87344 23.2004 6.25156 23.2004Z" fill="black"/>
</svg>
