<svg width="42" height="42" viewBox="0 0 42 42" fill="none" xmlns="http://www.w3.org/2000/svg">
<rect x="1" y="1" width="40" height="40" rx="20" fill="white"/>
<rect x="1" y="1" width="40" height="40" rx="20" stroke="#FFEBD4"/>
<g clip-path="url(#clip0_1268_47547)">
<circle cx="17.9333" cy="21.2737" r="7.93333" fill="#FFD2A8"/>
<path d="M28.5705 21.2885L31.0548 23.7728C32.3826 25.1006 32.3826 27.2534 31.0548 28.5812C29.7271 29.9089 27.5743 29.9089 26.2465 28.5812L19.8362 22.1709C19.7549 22.0896 19.6872 21.9998 19.633 21.9045C19.6301 21.8994 19.6272 21.8942 19.6244 21.889C19.3639 21.4151 19.4345 20.8078 19.8362 20.4061L26.2465 13.9958C27.5743 12.6681 29.727 12.6681 31.0548 13.9958C32.3826 15.3236 32.3826 17.4764 31.0548 18.8042L28.5705 21.2885Z" fill="#FFEBD4"/>
</g>
<defs>
<clipPath id="clip0_1268_47547">
<rect width="23" height="17" fill="white" transform="translate(10 13)"/>
</clipPath>
</defs>
</svg>
