<svg width="40" height="40" viewBox="0 0 40 40" fill="none" xmlns="http://www.w3.org/2000/svg">
<rect width="40" height="40" rx="20" fill="white"/>
<g clip-path="url(#clip0_1708_19265)">
<circle cx="16.9333" cy="20.2732" r="7.93333" fill="#E3E3E3"/>
<path d="M27.5705 20.2885L30.0548 22.7728C31.3826 24.1006 31.3826 26.2534 30.0548 27.5812C28.7271 28.9089 26.5743 28.9089 25.2465 27.5812L18.8362 21.1709C18.7549 21.0896 18.6872 20.9998 18.633 20.9045C18.6301 20.8994 18.6272 20.8942 18.6244 20.889C18.3639 20.4151 18.4345 19.8078 18.8362 19.4061L25.2465 12.9958C26.5743 11.6681 28.727 11.6681 30.0548 12.9958C31.3826 14.3236 31.3826 16.4764 30.0548 17.8042L27.5705 20.2885Z" fill="#F0F0F0"/>
</g>
<defs>
<clipPath id="clip0_1708_19265">
<rect width="23" height="17" fill="white" transform="translate(9 12)"/>
</clipPath>
</defs>
</svg>
