<svg width="64" height="74" viewBox="0 0 64 74" fill="none" xmlns="http://www.w3.org/2000/svg">
<path d="M50.3262 27.2068C50.3262 36.709 42.0839 41.6592 31.9165 41.6592C21.7491 41.6592 13.5068 36.709 13.5068 27.2068C13.5068 19.1279 19.4647 9.59676 27.4982 7.74729C27.7418 7.69121 27.13 6.73243 27.4982 6.56037C28.2346 6.21627 28.7238 7.50476 28.971 7.46762C29.4558 7.39475 30.0756 5.18395 31.1801 4.83984C31.9165 5.52806 31.4208 7.24858 31.9165 7.24858C42.0839 7.24858 50.3262 17.7045 50.3262 27.2068Z" fill="white"/>
<ellipse cx="31.4007" cy="30.6092" rx="2.79617" ry="1.86412" fill="#FCD959"/>
<ellipse cx="24.6155" cy="23.6623" rx="1.49934" ry="1.68675" fill="#424242"/>
<ellipse cx="38.2747" cy="23.6623" rx="1.49934" ry="1.68675" fill="#424242"/>
<path fill-rule="evenodd" clip-rule="evenodd" d="M29.9533 37.8727C29.9533 38.0145 29.9393 38.1541 29.9121 38.291H33.3395C33.3124 38.1541 33.2984 38.0145 33.2984 37.8727C33.2984 36.1023 35.4825 34.667 38.1767 34.667C40.8016 34.667 43.8049 35.9281 45.7021 37.178C48.4275 38.5174 50.3032 41.321 50.3032 44.5627C50.3032 49.1043 46.6214 52.7861 42.0798 52.7861C39.0074 52.7861 36.3286 51.1013 34.9169 48.6051H28.3355C26.9238 51.1013 24.245 52.7861 21.1726 52.7861C16.631 52.7861 12.9492 49.1043 12.9492 44.5627C12.9492 41.3221 14.8236 38.5194 17.5473 37.1794C19.4444 35.9291 22.449 34.667 25.075 34.667C27.7692 34.667 29.9533 36.1023 29.9533 37.8727Z" fill="#070709"/>
<circle cx="21.0332" cy="44.7022" r="5.5752" fill="#7F7F7F"/>
<circle cx="42.2188" cy="44.7022" r="5.5752" fill="#7F7F7F"/>
<ellipse cx="10.8789" cy="41.9694" rx="5.5752" ry="4.46016" transform="rotate(118.323 10.8789 41.9694)" fill="white"/>
<ellipse cx="5.5752" cy="4.46016" rx="5.5752" ry="4.46016" transform="matrix(0.474444 0.880286 0.880286 -0.474444 45.8428 39.1777)" fill="white"/>
<path d="M6.8082 69.8811H6.16016V62.5721H6.8082V69.8811ZM2.92813 63.1381C3.28906 63.1408 3.61035 63.2475 3.89199 63.458C4.17363 63.6658 4.39375 63.9611 4.55234 64.3439C4.71094 64.7268 4.79023 65.1725 4.79023 65.6811C4.79023 66.1896 4.71094 66.6354 4.55234 67.0182C4.39375 67.401 4.17363 67.6963 3.89199 67.9041C3.61035 68.1119 3.28906 68.2158 2.92813 68.2158C2.56719 68.2158 2.24453 68.1119 1.96016 67.9041C1.67852 67.6963 1.4584 67.401 1.2998 67.0182C1.14395 66.6354 1.06602 66.1896 1.06602 65.6811C1.06602 65.1725 1.14395 64.7268 1.2998 64.3439C1.4584 63.9611 1.67852 63.6658 1.96016 63.458C2.2418 63.2475 2.56445 63.1408 2.92813 63.1381ZM2.92813 63.7123C2.68477 63.715 2.46875 63.7984 2.28008 63.9625C2.09414 64.1238 1.94922 64.3535 1.84531 64.6516C1.74141 64.9469 1.68945 65.29 1.68945 65.6811C1.68945 66.0721 1.74141 66.4166 1.84531 66.7146C1.94922 67.01 2.09551 67.2383 2.28418 67.3996C2.47285 67.5609 2.6875 67.6416 2.92813 67.6416C3.16875 67.6416 3.3834 67.5609 3.57207 67.3996C3.76074 67.2383 3.90703 67.01 4.01094 66.7146C4.11484 66.4166 4.1668 66.0721 4.1668 65.6811C4.1668 65.29 4.11484 64.9469 4.01094 64.6516C3.90703 64.3535 3.76074 64.1238 3.57207 63.9625C3.38613 63.7984 3.17148 63.715 2.92813 63.7123ZM11.8531 68.0354H8.48164V63.2939H11.8531V68.0354ZM9.11328 67.5104H11.2215V63.8107H9.11328V67.5104ZM14.068 69.8811H13.4199V62.5721H14.068V69.8811ZM17.9234 64.8115C17.9234 65.2135 18.0123 65.6141 18.19 66.0133C18.3678 66.4098 18.607 66.7639 18.9078 67.0756C19.2113 67.3846 19.5422 67.617 19.9004 67.7729L19.5395 68.2814C19.1102 68.0846 18.7232 67.7879 18.3787 67.3914C18.0342 66.9922 17.7771 66.5424 17.6076 66.042C17.4381 66.5779 17.1811 67.0633 16.8365 67.498C16.4947 67.9301 16.116 68.2514 15.7004 68.4619L15.3148 67.9533C15.6594 67.7865 15.9807 67.535 16.2787 67.1986C16.5795 66.8623 16.8201 66.4836 17.0006 66.0625C17.1811 65.6387 17.2727 65.2217 17.2754 64.8115V63.86H15.5527V63.3268H19.6625V63.86H17.9234V64.8115ZM21.3277 69.8646H20.6797V62.5721H21.3277V69.8646ZM30.3266 65.5416H31.5078V66.083H30.3266V69.8646H29.6867V62.5721H30.3266V65.5416ZM28.4398 63.3596C28.4398 64.4451 28.1678 65.4295 27.6236 66.3127C27.0795 67.1932 26.2359 67.915 25.093 68.4783L24.732 67.9697C25.6699 67.5021 26.3959 66.9252 26.91 66.2389C27.424 65.5498 27.718 64.7705 27.7918 63.901H25.0684V63.3596H28.4398ZM37.9883 69.8646H37.3402V66.7229H35.8473V66.1814H37.3402V65.1725H35.8473V64.6311H37.3402V62.5721H37.9883V69.8646ZM34.4691 64.7377C34.4691 65.1123 34.5553 65.5033 34.7275 65.9107C34.9025 66.3154 35.1363 66.6859 35.4289 67.0223C35.7215 67.3559 36.0387 67.6088 36.3805 67.7811L35.9949 68.2732C35.5984 68.0682 35.2361 67.7564 34.908 67.3381C34.5799 66.9197 34.3311 66.459 34.1615 65.9559C34.0002 66.5027 33.7541 67.0004 33.4232 67.4488C33.0924 67.8945 32.7246 68.2295 32.3199 68.4537L31.8934 67.9615C32.2379 67.792 32.5564 67.535 32.849 67.1904C33.1443 66.8459 33.3795 66.4576 33.5545 66.0256C33.7295 65.5936 33.8184 65.1643 33.8211 64.7377V63.86H32.1559V63.3268H36.1344V63.86H34.4691V64.7377ZM42.5246 63.0479C43.0387 63.0506 43.498 63.1312 43.9027 63.2898C44.3074 63.4484 44.6232 63.6727 44.8502 63.9625C45.0771 64.2496 45.1906 64.5818 45.1906 64.9592C45.1906 65.3146 45.0908 65.6305 44.8912 65.9066C44.6943 66.1828 44.4182 66.4029 44.0627 66.567C43.7072 66.7311 43.2984 66.8281 42.8363 66.8582V68.3881H45.8797V68.9295H39.2023V68.3881H42.2047V66.8582C41.7453 66.8281 41.3379 66.7311 40.9824 66.567C40.627 66.4002 40.3508 66.1801 40.1539 65.9066C39.957 65.6305 39.8586 65.3146 39.8586 64.9592C39.8586 64.5818 39.9721 64.2496 40.199 63.9625C40.426 63.6727 40.7418 63.4484 41.1465 63.2898C41.5512 63.1312 42.0105 63.0506 42.5246 63.0479ZM42.5246 63.5811C42.1336 63.5811 41.7822 63.6398 41.4705 63.7574C41.1615 63.8723 40.9195 64.035 40.7445 64.2455C40.5695 64.4533 40.482 64.6912 40.482 64.9592C40.482 65.2354 40.5695 65.4787 40.7445 65.6893C40.9195 65.8998 41.1615 66.0625 41.4705 66.1773C41.7795 66.2922 42.1309 66.351 42.5246 66.3537C42.9184 66.351 43.2697 66.2922 43.5787 66.1773C43.8877 66.0625 44.1297 65.8998 44.3047 65.6893C44.4797 65.4787 44.5672 65.2354 44.5672 64.9592C44.5672 64.6912 44.4797 64.4533 44.3047 64.2455C44.1297 64.035 43.8863 63.8723 43.5746 63.7574C43.2656 63.6398 42.9156 63.5811 42.5246 63.5811ZM52.3602 65.3037H47.3645V62.8428H48.0043V64.7869H52.3602V65.3037ZM53.1313 66.8213H46.4539V66.2963H53.1313V66.8213ZM52.4012 69.6842H47.3234V67.5678H47.9633V69.151H52.4012V69.6842ZM62.4746 66.5178H59.4641V67.2971C60.1586 67.3271 60.6973 67.4529 61.0801 67.6744C61.4656 67.8932 61.6598 68.1939 61.6625 68.5768C61.6598 68.8447 61.5586 69.073 61.359 69.2617C61.1594 69.4531 60.8723 69.598 60.4977 69.6965C60.123 69.7977 59.6746 69.8482 59.1523 69.8482C58.6273 69.8482 58.1762 69.7977 57.7988 69.6965C57.4215 69.598 57.133 69.4531 56.9334 69.2617C56.7338 69.073 56.634 68.8447 56.634 68.5768C56.634 68.1939 56.8254 67.8932 57.2082 67.6744C57.591 67.4529 58.1324 67.3271 58.8324 67.2971V66.5178H55.8301V65.9846H62.4746V66.5178ZM59.1523 67.7893C58.7613 67.792 58.4264 67.8248 58.1475 67.8877C57.8686 67.9506 57.6553 68.0408 57.5076 68.1584C57.36 68.2732 57.2875 68.4127 57.2902 68.5768C57.2875 68.7381 57.36 68.8762 57.5076 68.991C57.6553 69.1059 57.8686 69.1934 58.1475 69.2535C58.4291 69.3164 58.7641 69.3479 59.1523 69.3479C59.5352 69.3479 59.866 69.3164 60.1449 69.2535C60.4266 69.1934 60.6412 69.1059 60.7889 68.991C60.9393 68.8762 61.0145 68.7381 61.0145 68.5768C61.0145 68.4154 60.9393 68.276 60.7889 68.1584C60.6412 68.0408 60.4279 67.9506 60.149 67.8877C59.8701 67.8248 59.5379 67.792 59.1523 67.7893ZM61.884 63.4416H59.5707C59.5844 63.7068 59.7102 63.9529 59.948 64.1799C60.1859 64.4041 60.4963 64.5914 60.8791 64.7418C61.2619 64.8895 61.6707 64.9865 62.1055 65.033L61.8676 65.5416C61.4629 65.4924 61.0787 65.4021 60.715 65.2709C60.3514 65.1369 60.0328 64.966 59.7594 64.7582C59.4859 64.5504 59.2836 64.3152 59.1523 64.0527C59.0238 64.3152 58.8229 64.5504 58.5494 64.7582C58.276 64.966 57.9574 65.1369 57.5938 65.2709C57.2301 65.4021 56.8445 65.4924 56.4371 65.5416L56.2074 65.033C56.634 64.9865 57.0373 64.8895 57.4174 64.7418C57.8002 64.5914 58.1105 64.4027 58.3484 64.1758C58.5891 63.9488 58.7176 63.7041 58.734 63.4416H56.4371V62.9166H61.884V63.4416Z" fill="#585858"/>
</svg>
