<svg width="315" height="183" viewBox="0 0 315 183" fill="none" xmlns="http://www.w3.org/2000/svg">
<g clip-path="url(#clip0_1407_50202)">
<rect width="315" height="183" rx="10" fill="#FFEBD4"/>
<path d="M255 157.458C255 207.783 211.348 234 157.5 234C103.652 234 60 207.783 60 157.458C60 114.672 91.5538 64.1932 134.1 54.3982C135.39 54.1012 132.15 49.0233 134.1 48.1121C138 46.2897 140.591 53.1137 141.9 52.917C144.468 52.5311 147.75 40.8224 153.6 39C157.5 42.6449 154.874 51.7569 157.5 51.7569C211.348 51.7569 255 107.133 255 157.458Z" fill="white"/>
<ellipse cx="156.531" cy="123.975" rx="20.394" ry="10.197" fill="#FCD959"/>
<ellipse cx="127.98" cy="89.9849" rx="5.43839" ry="6.11819" fill="#424242"/>
<ellipse cx="182.364" cy="89.9849" rx="5.43839" ry="6.11819" fill="#424242"/>
<path d="M188 109.435C188 111.956 185.985 114 183.5 114C181.015 114 179 111.956 179 109.435C179 106.913 183.5 100 183.5 100C183.5 100 188 106.913 188 109.435Z" fill="#B5D6FF"/>
</g>
<defs>
<clipPath id="clip0_1407_50202">
<rect width="315" height="183" rx="10" fill="white"/>
</clipPath>
</defs>
</svg>
