<svg width="300" height="300" viewBox="0 0 300 300" fill="none" xmlns="http://www.w3.org/2000/svg">
<rect width="300" height="300" fill="#FFEBD4"/>
<path d="M173.511 143.17C173.511 172.981 147.653 188.511 115.755 188.511C83.858 188.511 58 172.981 58 143.17C58 117.825 76.6913 87.9235 101.894 82.1213C102.658 81.9454 100.739 78.9375 101.894 78.3977C104.204 77.3181 105.739 81.3605 106.515 81.2439C108.036 81.0153 109.98 74.0795 113.445 73C115.755 75.1591 114.2 80.5567 115.755 80.5567C147.653 80.5567 173.511 113.359 173.511 143.17Z" fill="white"/>
<ellipse cx="92.673" cy="130.033" rx="5.77554" ry="6.49748" fill="#424242"/>
<ellipse cx="137.418" cy="130.033" rx="5.77554" ry="6.49748" fill="#424242"/>
<ellipse cx="115.761" cy="155.3" rx="12.995" ry="8.66331" fill="#FCD959"/>
<path d="M164.205 217.769L165.94 200.701C166.128 198.849 167.749 197.478 169.607 197.599L181.035 198.342C182.991 198.469 184.451 200.195 184.253 202.145L182.517 219.213C182.329 221.065 180.709 222.436 178.851 222.316L167.423 221.572C165.466 221.445 164.007 219.72 164.205 217.769Z" fill="#FFB271"/>
<path d="M164.506 149.856L221.756 149.246L215.517 205.184L160.309 187.723L164.506 149.856Z" fill="white"/>
<ellipse cx="229.605" cy="177.613" rx="8.65002" ry="12.975" transform="rotate(7.21225 229.605 177.613)" fill="white"/>
<rect x="220.152" y="143.01" width="13.1704" height="68.5893" rx="6.5852" transform="rotate(7.20952 220.152 143.01)" fill="#FFB271"/>
<path d="M161.536 198.856L163.623 187.537C163.771 186.733 164.457 186.14 165.274 186.135C175.358 186.061 192.15 187.835 191.049 194.589C189.896 201.665 185.006 203.135 182.706 202.985L163.272 200.913L163.054 200.89C162.052 200.783 161.353 199.847 161.536 198.856Z" fill="white"/>
<path d="M143.895 158.783C144.985 151.652 151.369 146.555 158.563 147.069L166.834 147.661C167.824 147.731 168.551 148.619 168.427 149.604L163.417 189.124C163.288 190.14 162.31 190.822 161.312 190.593L152.308 188.521C145.248 186.896 140.636 180.103 141.73 172.942L143.895 158.783Z" fill="#FFB271"/>
</svg>
