<svg width="335" height="335" viewBox="0 0 335 335" fill="none" xmlns="http://www.w3.org/2000/svg">
<rect width="335" height="335" rx="4" fill="#F7F7F7"/>
<circle cx="144.9" cy="165.912" r="46.9" fill="#E3E3E3"/>
<path d="M207.785 166L222.472 180.686C230.321 188.536 230.321 201.263 222.472 209.112C214.622 216.962 201.896 216.962 194.046 209.112L156.15 171.216C155.669 170.735 155.269 170.205 154.949 169.641C154.932 169.611 154.915 169.58 154.898 169.55C153.358 166.748 153.775 163.158 156.15 160.783L194.046 122.887C201.896 115.038 214.622 115.038 222.472 122.887C230.321 130.737 230.321 143.463 222.472 151.313L207.785 166Z" fill="#F0F0F0"/>
</svg>
