<svg width="80" height="80" viewBox="0 0 80 80" fill="none" xmlns="http://www.w3.org/2000/svg">
<rect width="80" height="80" rx="4" fill="#F7F7F7"/>
<path d="M18.608 43.704C18.944 43.704 19.196 43.8 19.364 43.992C19.532 44.184 19.616 44.416 19.616 44.688C19.616 44.968 19.532 45.2 19.364 45.384C19.196 45.576 18.944 45.672 18.608 45.672H9.392C9.056 45.672 8.804 45.576 8.636 45.384C8.468 45.2 8.384 44.968 8.384 44.688C8.384 44.416 8.468 44.184 8.636 43.992C8.804 43.8 9.056 43.704 9.392 43.704H12.776V41.484H11.948C11.3 41.484 10.732 41.34 10.244 41.052C9.756 40.764 9.38 40.384 9.116 39.912C8.86 39.432 8.732 38.916 8.732 38.364V38.064C8.732 37.512 8.86 37 9.116 36.528C9.38 36.048 9.756 35.664 10.244 35.376C10.732 35.088 11.3 34.944 11.948 34.944H16.04C16.688 34.944 17.256 35.088 17.744 35.376C18.232 35.664 18.608 36.048 18.872 36.528C19.136 37 19.268 37.512 19.268 38.064V38.364C19.268 38.916 19.136 39.432 18.872 39.912C18.608 40.384 18.232 40.764 17.744 41.052C17.256 41.34 16.688 41.484 16.04 41.484H15.224V43.704H18.608ZM16.772 38.052C16.772 37.716 16.644 37.44 16.388 37.224C16.14 37 15.816 36.888 15.416 36.888H12.572C12.172 36.888 11.848 37 11.6 37.224C11.352 37.44 11.228 37.716 11.228 38.052V38.376C11.228 38.712 11.352 38.992 11.6 39.216C11.848 39.432 12.172 39.54 12.572 39.54H15.416C15.816 39.54 16.14 39.432 16.388 39.216C16.644 38.992 16.772 38.712 16.772 38.376V38.052ZM30.68 38.832C30.992 38.832 31.224 38.912 31.376 39.072C31.536 39.232 31.616 39.444 31.616 39.708C31.616 39.972 31.536 40.184 31.376 40.344C31.216 40.496 30.984 40.572 30.68 40.572H21.32C21.016 40.572 20.784 40.496 20.624 40.344C20.464 40.184 20.384 39.972 20.384 39.708C20.384 39.444 20.46 39.232 20.612 39.072C20.772 38.912 21.008 38.832 21.32 38.832H30.68ZM22.232 45.912C21.744 45.912 21.368 45.772 21.104 45.492C20.848 45.212 20.72 44.856 20.72 44.424V44.328C20.72 43.904 20.844 43.564 21.092 43.308C21.348 43.052 21.728 42.924 22.232 42.924H28.652V42.684C28.652 42.564 28.58 42.504 28.436 42.504H21.524C21.316 42.504 21.148 42.44 21.02 42.312C20.9 42.176 20.84 42.016 20.84 41.832C20.84 41.64 20.896 41.48 21.008 41.352C21.128 41.224 21.3 41.16 21.524 41.16H29.78C30.276 41.16 30.624 41.252 30.824 41.436C31.024 41.612 31.124 41.892 31.124 42.276V44.136H23.552C23.384 44.136 23.3 44.208 23.3 44.352C23.3 44.416 23.32 44.468 23.36 44.508C23.408 44.54 23.472 44.556 23.552 44.556H30.788C31.02 44.556 31.188 44.624 31.292 44.76C31.404 44.888 31.46 45.048 31.46 45.24C31.46 45.432 31.404 45.592 31.292 45.72C31.188 45.848 31.02 45.912 30.788 45.912H22.232ZM30.212 36.612C30.54 36.612 30.78 36.688 30.932 36.84C31.092 36.992 31.172 37.196 31.172 37.452C31.172 37.716 31.092 37.928 30.932 38.088C30.78 38.248 30.54 38.328 30.212 38.328H22.52C21.936 38.328 21.52 38.212 21.272 37.98C21.032 37.74 20.912 37.38 20.912 36.9V35.88C20.912 35.496 21.028 35.208 21.26 35.016C21.5 34.816 21.796 34.716 22.148 34.716C22.5 34.716 22.788 34.816 23.012 35.016C23.244 35.216 23.36 35.504 23.36 35.88V36.384C23.36 36.472 23.384 36.532 23.432 36.564C23.48 36.596 23.572 36.612 23.708 36.612H30.212ZM42.608 43.704C42.944 43.704 43.196 43.8 43.364 43.992C43.532 44.184 43.616 44.416 43.616 44.688C43.616 44.968 43.532 45.2 43.364 45.384C43.196 45.576 42.944 45.672 42.608 45.672H33.392C33.056 45.672 32.804 45.576 32.636 45.384C32.468 45.2 32.384 44.968 32.384 44.688C32.384 44.416 32.468 44.184 32.636 43.992C32.804 43.8 33.056 43.704 33.392 43.704H36.776V41.424H34.928C34.448 41.424 34.068 41.364 33.788 41.244C33.516 41.116 33.316 40.916 33.188 40.644C33.068 40.372 33.008 40.004 33.008 39.54V36.9C33.008 36.436 33.068 36.072 33.188 35.808C33.316 35.536 33.516 35.34 33.788 35.22C34.068 35.092 34.448 35.028 34.928 35.028H41.888C42.2 35.028 42.432 35.128 42.584 35.328C42.736 35.528 42.812 35.76 42.812 36.024C42.812 36.288 42.736 36.52 42.584 36.72C42.432 36.92 42.2 37.02 41.888 37.02H35.792C35.664 37.02 35.576 37.044 35.528 37.092C35.48 37.132 35.456 37.212 35.456 37.332V39.108C35.456 39.236 35.48 39.324 35.528 39.372C35.576 39.42 35.664 39.444 35.792 39.444H42.08C42.384 39.444 42.616 39.544 42.776 39.744C42.936 39.944 43.016 40.172 43.016 40.428C43.016 40.684 42.936 40.916 42.776 41.124C42.616 41.324 42.384 41.424 42.08 41.424H39.224V43.704H42.608ZM56.2433 35.832C56.2433 35.456 56.3593 35.164 56.5913 34.956C56.8233 34.748 57.1073 34.644 57.4433 34.644C57.7793 34.644 58.0633 34.748 58.2953 34.956C58.5273 35.164 58.6433 35.456 58.6433 35.832V45.912H56.2433V35.832ZM50.0873 45.408C49.3593 45.408 48.8393 45.26 48.5273 44.964C48.2233 44.66 48.0713 44.148 48.0713 43.428V41.124C48.0713 40.404 48.2233 39.9 48.5273 39.612C48.8393 39.316 49.3593 39.168 50.0873 39.168H52.3073V37.416C52.3073 37.2 52.2073 37.092 52.0073 37.092H49.1993C48.8633 37.092 48.6073 36.996 48.4313 36.804C48.2633 36.604 48.1793 36.368 48.1793 36.096C48.1793 35.824 48.2633 35.588 48.4313 35.388C48.6073 35.188 48.8633 35.088 49.1993 35.088H52.6673C53.2033 35.088 53.6153 35.144 53.9033 35.256C54.1993 35.368 54.4073 35.552 54.5273 35.808C54.6473 36.056 54.7073 36.408 54.7073 36.864V41.124H51.0113C50.8033 41.124 50.6593 41.16 50.5793 41.232C50.5073 41.296 50.4713 41.428 50.4713 41.628V42.936C50.4713 43.136 50.5073 43.272 50.5793 43.344C50.6593 43.408 50.8033 43.44 51.0113 43.44H54.5753C54.9193 43.44 55.1753 43.536 55.3433 43.728C55.5113 43.92 55.5953 44.152 55.5953 44.424C55.5953 44.696 55.5073 44.928 55.3313 45.12C55.1633 45.312 54.9113 45.408 54.5753 45.408H50.0873ZM69.9713 41.364C70.3073 41.364 70.5593 41.46 70.7273 41.652C70.8953 41.844 70.9793 42.076 70.9793 42.348C70.9793 42.628 70.8953 42.864 70.7273 43.056C70.5593 43.24 70.3073 43.332 69.9713 43.332H68.9873V45.972H66.5513V43.332H64.6793V43.68C64.6793 44.16 64.5673 44.592 64.3433 44.976C64.1193 45.352 63.7993 45.648 63.3833 45.864C62.9753 46.08 62.5033 46.188 61.9673 46.188C61.5673 46.188 61.2593 46.1 61.0433 45.924C60.8353 45.756 60.7313 45.544 60.7313 45.288C60.7313 44.8 60.9993 44.528 61.5353 44.472C61.8073 44.456 61.9993 44.384 62.1113 44.256C62.2313 44.12 62.2913 43.92 62.2913 43.656V43.332H60.7553C60.4193 43.332 60.1673 43.24 59.9993 43.056C59.8313 42.864 59.7473 42.628 59.7473 42.348C59.7473 42.076 59.8313 41.844 59.9993 41.652C60.1673 41.46 60.4193 41.364 60.7553 41.364H69.9713ZM62.7713 38.28C62.7713 38.408 62.7993 38.5 62.8553 38.556C62.9113 38.612 63.0073 38.64 63.1433 38.64H67.9433V37.68H62.7713V38.28ZM60.3113 35.808C60.3113 35.44 60.4273 35.172 60.6593 35.004C60.8993 34.828 61.1953 34.74 61.5473 34.74C61.8753 34.74 62.1593 34.836 62.3993 35.028C62.6473 35.212 62.7713 35.48 62.7713 35.832V35.844H67.9433V35.808C67.9433 35.44 68.0593 35.172 68.2913 35.004C68.5233 34.828 68.8153 34.74 69.1673 34.74C69.5113 34.74 69.7993 34.828 70.0313 35.004C70.2713 35.18 70.3913 35.448 70.3913 35.808V40.56H61.8953C61.4553 40.56 61.1233 40.508 60.8993 40.404C60.6753 40.292 60.5193 40.12 60.4313 39.888C60.3513 39.656 60.3113 39.332 60.3113 38.916V35.808Z" fill="#999999"/>
</svg>
