<svg width="32" height="32" viewBox="0 0 32 32" fill="none" xmlns="http://www.w3.org/2000/svg">
<path d="M22.4063 0H9.5935C8.74651 0 7.9342 0.336468 7.33529 0.935384C6.73637 1.5343 6.3999 2.3466 6.3999 3.1936V28.8048C6.3999 30.5696 7.8303 32 9.5935 32H22.4047C23.2518 32 24.0643 31.6636 24.6635 31.0647C25.2627 30.4658 25.5995 29.6535 25.5999 28.8064V3.1936C25.5999 2.3466 25.2634 1.5343 24.6645 0.935384C24.0656 0.336468 23.2533 0 22.4063 0ZM15.9999 30.4C14.8959 30.4 13.9999 29.6848 13.9999 28.8C13.9999 27.9152 14.8959 27.2 15.9999 27.2C17.1039 27.2 17.9999 27.9152 17.9999 28.8C17.9999 29.6848 17.1039 30.4 15.9999 30.4ZM22.3999 25.6H9.5999V3.2H22.3999V25.6Z" fill="#FF7E29"/>
</svg>
