<svg width="42" height="42" viewBox="0 0 42 42" fill="none" xmlns="http://www.w3.org/2000/svg">
<path d="M37.3792 24.6112C37.3792 28.8084 35.5665 31.981 32.6314 34.1178C29.6823 36.2647 25.5768 37.38 20.9992 37.38C16.4216 37.38 12.3161 36.2647 9.36702 34.1178C6.43194 31.981 4.61922 28.8084 4.61922 24.6112C4.61922 21.021 5.94598 17.0851 8.18007 13.8385C10.4148 10.5909 13.5264 8.0763 17.0614 7.26247C17.1534 7.2413 17.2436 7.19281 17.3145 7.11286C17.3816 7.03716 17.4123 6.95477 17.4267 6.89206C17.4527 6.77853 17.4377 6.67134 17.4276 6.61296C17.4109 6.51632 17.3753 6.39542 17.3476 6.30149C17.3405 6.2777 17.334 6.25563 17.3285 6.23614C17.324 6.22049 17.3199 6.2056 17.316 6.19144C17.3663 6.2278 17.4253 6.28251 17.4935 6.3588C17.5592 6.43239 17.6058 6.49184 17.656 6.55583C17.6921 6.60191 17.73 6.65036 17.7783 6.70813C17.8233 6.76187 17.8837 6.83062 17.9527 6.88625C18.0057 6.92893 18.1605 7.04532 18.3736 7.0133C18.5686 6.984 18.707 6.86223 18.7862 6.77988C18.8741 6.68848 18.9537 6.57625 19.0242 6.46679C19.1146 6.32641 19.2153 6.14924 19.316 5.97184C19.3677 5.8809 19.4194 5.7899 19.4697 5.70376C19.6282 5.43267 19.7917 5.17607 19.9675 4.97174C20.0461 4.8804 20.1215 4.80634 20.1935 4.74821C20.2125 4.79646 20.2296 4.85046 20.2448 4.91068C20.2935 5.10463 20.3127 5.32531 20.3263 5.55896C20.3283 5.59318 20.3302 5.62877 20.3321 5.6652C20.342 5.85269 20.3532 6.06273 20.3862 6.22607C20.406 6.32436 20.4429 6.45933 20.5288 6.57703C20.6315 6.71773 20.7946 6.81807 20.9992 6.81807C25.4895 6.81807 29.5818 9.12797 32.5627 12.5297C35.545 15.9329 37.3792 20.3904 37.3792 24.6112Z" fill="white" stroke="#424242" stroke-width="0.84"/>
<ellipse cx="14.2816" cy="20.7899" rx="1.68" ry="1.89" fill="#424242"/>
<ellipse cx="27.3011" cy="20.7899" rx="1.68" ry="1.89" fill="#424242"/>
<ellipse cx="20.9975" cy="28.1399" rx="3.78" ry="2.52" fill="#FCD959"/>
<path d="M12.8102 14.28C12.776 14.5737 12.4078 14.7671 12.1774 14.7403C11.9469 14.7135 11.72 14.4159 11.7602 14.0703C11.8004 13.7247 11.5502 13.4401 12.3229 13.4887C13.1424 13.54 12.8444 13.9862 12.8102 14.28Z" fill="#00A3FF" fill-opacity="0.5"/>
<path d="M11.3572 13.4399C11.3572 13.4399 11.1472 15.0717 12.1972 15.1199C13.0372 15.1586 13.2472 13.6499 13.2472 13.6499" stroke="#424242" stroke-width="0.84" stroke-linecap="round"/>
<path d="M10.2909 17.2367C10.2567 17.5304 9.88847 17.7239 9.65807 17.6971C9.42766 17.6703 9.2007 17.3727 9.2409 17.0271C9.2811 16.6815 9.03087 16.3969 9.80365 16.4455C10.6231 16.4968 10.3251 16.943 10.2909 17.2367Z" fill="#00A3FF" fill-opacity="0.5"/>
<path d="M8.8377 16.3967C8.8377 16.3967 8.62768 18.0285 9.6777 18.0767C10.5177 18.1153 10.7277 16.6067 10.7277 16.6067" stroke="#424242" stroke-width="0.84" stroke-linecap="round"/>
</svg>
