<svg width="32" height="32" viewBox="0 0 32 32" fill="none" xmlns="http://www.w3.org/2000/svg">
<rect width="32" height="32" fill="white"/>
<path d="M13.76 27.2008C13.4542 27.2008 13.0591 26.9981 12.8999 26.8968C12.6785 26.7403 12.5581 26.3825 12.5213 26.2059C12.5187 26.1936 12.5176 26.1811 12.5176 26.1685V25.9847V14.0268C12.5176 13.8646 12.5813 13.6214 12.6131 13.5201C12.685 13.2917 12.931 13.105 13.0662 13.0271C13.0825 13.0177 13.1002 13.0118 13.1183 13.0066C13.4972 12.8979 14.0712 12.177 14.3247 11.81C14.3307 11.8014 14.337 11.7936 14.3441 11.7859C14.794 11.2974 14.9068 10.4433 14.9068 10.0746V9.77057V8.5545C14.9833 7.25736 15.6396 6.18993 15.9581 5.81836C16.9521 4.92658 18.0288 4.7712 18.443 4.80498C19.7427 4.80498 20.6411 5.48057 20.9278 5.81836C21.7688 6.62907 22.0428 7.77757 22.0747 8.25048V8.5545V13.3176C22.0747 13.4294 22.1653 13.5201 22.2772 13.5201H24.4639C25.6108 13.5201 26.5346 14.1281 26.8532 14.4321C27.7707 15.1618 28 16.29 28 16.7629V17.0669V17.2696V17.4539C28 17.4661 27.9989 17.4783 27.9968 17.4903L26.8532 23.7553C26.318 26.4306 24.3365 27.167 23.4126 27.2008H23.2215H13.76Z" fill="#585858" stroke="#585858" stroke-width="1.6" stroke-linecap="round"/>
<path d="M8.6445 26.0636V15.5391C8.6445 15.1734 8.41416 14.8371 8.28665 14.7002C8.2776 14.6905 8.2694 14.6801 8.26154 14.6694C8.1044 14.4555 7.711 14.4014 7.52976 14.4014H6.32213H6.13634C5.61613 14.4014 4.9287 14.907 4.65002 15.1599C4.20412 15.5391 4.03072 16.3293 3.99976 16.6769V24.831V25.0206C3.99976 25.6178 4.4795 26.325 4.73086 26.6185C4.73899 26.628 4.74592 26.6379 4.75273 26.6483C4.99172 27.0162 5.89471 27.1702 6.32213 27.2014H7.43686H7.62265C7.8456 27.2014 8.21099 26.9485 8.36581 26.8221C8.58876 26.6704 8.6445 26.2532 8.6445 26.0636Z" fill="#585858" stroke="#585858" stroke-width="1.6" stroke-linecap="round"/>
</svg>
