<svg width="20" height="21" viewBox="0 0 20 21" fill="none" xmlns="http://www.w3.org/2000/svg">
<path d="M10 18C11.4834 18 12.9334 17.5601 14.1668 16.736C15.4001 15.9119 16.3614 14.7406 16.9291 13.3701C17.4968 11.9997 17.6453 10.4917 17.3559 9.03683C17.0665 7.58197 16.3522 6.2456 15.3033 5.1967C14.2544 4.14781 12.918 3.4335 11.4632 3.14411C10.0083 2.85472 8.50032 3.00325 7.12987 3.57091C5.75943 4.13856 4.58809 5.09986 3.76398 6.33323C2.93987 7.5666 2.5 9.01664 2.5 10.5C2.5 11.74 2.8 12.9083 3.33333 13.9392L2.5 18L6.56083 17.1667C7.59083 17.6992 8.76083 18 10 18Z" stroke="#585858" stroke-linecap="round" stroke-linejoin="round"/>
</svg>
