<svg width="24" height="24" viewBox="0 0 24 24" fill="none" xmlns="http://www.w3.org/2000/svg">
<path d="M12 19.0005C12.2449 19.0005 12.4813 19.0904 12.6644 19.2532C12.8474 19.416 12.9643 19.6402 12.993 19.8835L13 20.0005V21.0005C12.9997 21.2554 12.9021 21.5005 12.7271 21.6859C12.5522 21.8712 12.313 21.9827 12.0586 21.9977C11.8042 22.0126 11.5536 21.9298 11.3582 21.7662C11.1627 21.6026 11.0371 21.3706 11.007 21.1175L11 21.0005V20.0005C11 19.7353 11.1053 19.4809 11.2929 19.2934C11.4804 19.1058 11.7348 19.0005 12 19.0005ZM18.313 16.9105L18.407 16.9935L19.107 17.6935C19.2863 17.8734 19.3905 18.1149 19.3982 18.3689C19.406 18.6228 19.3168 18.8702 19.1487 19.0608C18.9807 19.2513 18.7464 19.3708 18.4935 19.3949C18.2406 19.419 17.988 19.3459 17.787 19.1905L17.693 19.1075L16.993 18.4075C16.8204 18.2352 16.7167 18.0058 16.7015 17.7625C16.6862 17.5191 16.7603 17.2786 16.9099 17.0861C17.0596 16.8936 17.2744 16.7623 17.514 16.7171C17.7536 16.6719 18.0015 16.7158 18.211 16.8405L18.313 16.9105ZM7.00699 16.9935C7.17917 17.1657 7.2826 17.3948 7.29788 17.6378C7.31316 17.8808 7.23924 18.1211 7.08999 18.3135L7.00699 18.4075L6.30699 19.1075C6.12703 19.2868 5.88556 19.391 5.63161 19.3987C5.37766 19.4065 5.13028 19.3173 4.93971 19.1492C4.74915 18.9812 4.62969 18.7469 4.60559 18.494C4.5815 18.2411 4.65458 17.9885 4.80999 17.7875L4.89299 17.6935L5.59299 16.9935C5.78052 16.806 6.03483 16.7007 6.29999 16.7007C6.56516 16.7007 6.81946 16.806 7.00699 16.9935ZM3.99999 11.0005C4.25487 11.0008 4.50002 11.0984 4.68536 11.2733C4.8707 11.4483 4.98223 11.6874 4.99716 11.9419C5.0121 12.1963 4.92932 12.4469 4.76573 12.6423C4.60214 12.8378 4.37009 12.9634 4.11699 12.9935L3.99999 13.0005H2.99999C2.74511 13.0002 2.49996 12.9026 2.31462 12.7276C2.12929 12.5527 2.01776 12.3135 2.00282 12.0591C1.98788 11.8047 2.07067 11.5541 2.23426 11.3587C2.39785 11.1632 2.62989 11.0376 2.88299 11.0075L2.99999 11.0005H3.99999ZM21 11.0005C21.2549 11.0008 21.5 11.0984 21.6854 11.2733C21.8707 11.4483 21.9822 11.6874 21.9972 11.9419C22.0121 12.1963 21.9293 12.4469 21.7657 12.6423C21.6021 12.8378 21.3701 12.9634 21.117 12.9935L21 13.0005H20C19.7451 13.0002 19.5 12.9026 19.3146 12.7276C19.1293 12.5527 19.0178 12.3135 19.0028 12.0591C18.9879 11.8047 19.0707 11.5541 19.2343 11.3587C19.3978 11.1632 19.6299 11.0376 19.883 11.0075L20 11.0005H21ZM6.21299 4.81049L6.30699 4.89349L7.00699 5.59349C7.18634 5.77345 7.29046 6.01492 7.29822 6.26887C7.30597 6.52282 7.21678 6.7702 7.04874 6.96077C6.88071 7.15133 6.64644 7.27079 6.39352 7.29489C6.14059 7.31898 5.88798 7.2459 5.68699 7.09049L5.59299 7.00749L4.89299 6.30749C4.72108 6.13517 4.61792 5.90606 4.60286 5.66312C4.58779 5.42018 4.66185 5.18008 4.81115 4.98784C4.96046 4.7956 5.17475 4.66442 5.41386 4.61888C5.65297 4.57334 5.90048 4.61658 6.10999 4.74049L6.21299 4.81049ZM19.107 4.89349C19.2792 5.06568 19.3826 5.29478 19.3979 5.53781C19.4132 5.78083 19.3392 6.02108 19.19 6.21349L19.107 6.30749L18.407 7.00749C18.227 7.18684 17.9856 7.29096 17.7316 7.29872C17.4777 7.30647 17.2303 7.21727 17.0397 7.04924C16.8491 6.88121 16.7297 6.64694 16.7056 6.39401C16.6815 6.14109 16.7546 5.88848 16.91 5.68749L16.993 5.59349L17.693 4.89349C17.8805 4.70602 18.1348 4.6007 18.4 4.6007C18.6652 4.6007 18.9195 4.70602 19.107 4.89349ZM12 2.00049C12.2449 2.00052 12.4813 2.09044 12.6644 2.2532C12.8474 2.41596 12.9643 2.64024 12.993 2.88349L13 3.00049V4.00049C12.9997 4.25537 12.9021 4.50052 12.7271 4.68586C12.5522 4.87119 12.313 4.98272 12.0586 4.99766C11.8042 5.0126 11.5536 4.92981 11.3582 4.76622C11.1627 4.60263 11.0371 4.37058 11.007 4.11749L11 4.00049V3.00049C11 2.73527 11.1053 2.48092 11.2929 2.29338C11.4804 2.10585 11.7348 2.00049 12 2.00049ZM12 7.00049C12.9797 7.00043 13.9378 7.28818 14.7553 7.82799C15.5729 8.3678 16.2138 9.13588 16.5986 10.0368C16.9833 10.9378 17.0949 11.932 16.9195 12.8958C16.744 13.8596 16.2893 14.7507 15.6118 15.4583C14.9343 16.166 14.0638 16.659 13.1085 16.8761C12.1532 17.0933 11.1552 17.025 10.2383 16.6798C9.32149 16.3345 8.52628 15.7276 7.95145 14.9343C7.37662 14.1409 7.04751 13.1962 7.00499 12.2175L6.99999 12.0005L7.00499 11.7835C7.06091 10.4962 7.6116 9.28027 8.54221 8.38915C9.47283 7.49803 10.7115 7.00056 12 7.00049Z" fill="#FF7E29"/>
</svg>
