<svg width="20" height="20" viewBox="0 0 20 20" fill="none" xmlns="http://www.w3.org/2000/svg">
<path fill-rule="evenodd" clip-rule="evenodd" d="M5.29289 9.45956C4.90237 9.85008 4.90237 10.4832 5.29289 10.8738L9.45956 15.0404C9.85008 15.431 10.4832 15.431 10.8738 15.0404C11.2643 14.6499 11.2643 14.0168 10.8738 13.6262L7.41421 10.1667L10.8738 6.70711C11.2643 6.31658 11.2643 5.68342 10.8738 5.29289C10.4832 4.90237 9.85008 4.90237 9.45956 5.29289L5.29289 9.45956Z" fill="#818181"/>
<path fill-rule="evenodd" clip-rule="evenodd" d="M9.79289 9.62655C9.40237 10.0171 9.40237 10.6502 9.79289 11.0408L13.9596 15.2074C14.3501 15.598 14.9832 15.598 15.3738 15.2074C15.7643 14.8169 15.7643 14.1837 15.3738 13.7932L11.9142 10.3337L15.3738 6.8741C15.7643 6.48357 15.7643 5.85041 15.3738 5.45989C14.9832 5.06936 14.3501 5.06936 13.9596 5.45989L9.79289 9.62655Z" fill="#818181"/>
</svg>
