<svg width="20" height="20" viewBox="0 0 20 20" fill="none" xmlns="http://www.w3.org/2000/svg">
<path d="M5 10.625C5.16576 10.625 5.32473 10.5592 5.44194 10.4419C5.55915 10.3247 5.625 10.1658 5.625 10C5.625 9.83424 5.55915 9.67527 5.44194 9.55806C5.32473 9.44085 5.16576 9.375 5 9.375C4.83424 9.375 4.67527 9.44085 4.55806 9.55806C4.44085 9.67527 4.375 9.83424 4.375 10C4.375 10.1658 4.44085 10.3247 4.55806 10.4419C4.67527 10.5592 4.83424 10.625 5 10.625ZM10 10.625C10.1658 10.625 10.3247 10.5592 10.4419 10.4419C10.5592 10.3247 10.625 10.1658 10.625 10C10.625 9.83424 10.5592 9.67527 10.4419 9.55806C10.3247 9.44085 10.1658 9.375 10 9.375C9.83424 9.375 9.67527 9.44085 9.55806 9.55806C9.44085 9.67527 9.375 9.83424 9.375 10C9.375 10.1658 9.44085 10.3247 9.55806 10.4419C9.67527 10.5592 9.83424 10.625 10 10.625ZM15 10.625C15.1658 10.625 15.3247 10.5592 15.4419 10.4419C15.5592 10.3247 15.625 10.1658 15.625 10C15.625 9.83424 15.5592 9.67527 15.4419 9.55806C15.3247 9.44085 15.1658 9.375 15 9.375C14.8342 9.375 14.6753 9.44085 14.5581 9.55806C14.4408 9.67527 14.375 9.83424 14.375 10C14.375 10.1658 14.4408 10.3247 14.5581 10.4419C14.6753 10.5592 14.8342 10.625 15 10.625Z" fill="#AAAAAA" stroke="#AAAAAA" stroke-width="2"/>
</svg>
