<svg width="20" height="20" viewBox="0 0 20 20" fill="none" xmlns="http://www.w3.org/2000/svg">
<path fill-rule="evenodd" clip-rule="evenodd" d="M14.7071 9.45956C15.0976 9.85008 15.0976 10.4832 14.7071 10.8738L10.5404 15.0404C10.1499 15.431 9.51675 15.431 9.12623 15.0404C8.7357 14.6499 8.7357 14.0168 9.12623 13.6262L12.5858 10.1667L9.12623 6.70711C8.7357 6.31658 8.7357 5.68342 9.12623 5.29289C9.51675 4.90237 10.1499 4.90237 10.5404 5.29289L14.7071 9.45956Z" fill="#818181"/>
<path fill-rule="evenodd" clip-rule="evenodd" d="M10.2071 9.62655C10.5976 10.0171 10.5976 10.6502 10.2071 11.0408L6.04044 15.2074C5.64992 15.598 5.01675 15.598 4.62623 15.2074C4.2357 14.8169 4.2357 14.1837 4.62623 13.7932L8.08579 10.3337L4.62623 6.8741C4.2357 6.48357 4.2357 5.85041 4.62623 5.45989C5.01675 5.06936 5.64992 5.06936 6.04044 5.45989L10.2071 9.62655Z" fill="#818181"/>
</svg>
