<svg width="80" height="80" viewBox="0 0 80 80" fill="none" xmlns="http://www.w3.org/2000/svg">
<g filter="url(#filter0_d_1642_54534)">
<rect x="12" y="12" width="56" height="56" rx="28" fill="white"/>
<mask id="path-2-inside-1_1642_54534" fill="white">
<path fill-rule="evenodd" clip-rule="evenodd" d="M45.8689 28C47.4952 28 49.0549 28.646 50.2049 29.796C51.3548 30.946 52.0009 32.5057 52.0009 34.132C52.0009 34.5949 51.8157 35.0406 51.4866 35.3697L50.5815 36.2766L47.2026 39.6554L38.53 48.328C37.812 49.0457 36.8976 49.5348 35.902 49.7337L31.3797 50.6389C31.1029 50.6943 30.8167 50.6806 30.5464 50.5988C30.2762 50.5171 30.0304 50.3698 29.8307 50.1702C29.6311 49.9705 29.4838 49.7247 29.4021 49.4544C29.3203 49.1842 29.3066 48.898 29.362 48.6211L30.2672 44.0989C30.4661 43.1033 30.9552 42.1889 31.6729 41.4709L40.3455 32.7983L44.6312 28.5126C44.9586 28.1851 45.4043 28 45.8689 28ZM41.9089 34.8726L33.4917 43.2897C33.1331 43.6485 32.8885 44.1054 32.7889 44.6029L32.1375 47.8651L35.398 47.2137C35.8961 47.1144 36.3536 46.8699 36.7129 46.5109L45.13 38.0937C45.0535 37.2648 44.6894 36.4888 44.1008 35.9001C43.5121 35.3115 42.7361 34.9474 41.9072 34.8709M47.218 35.9989C46.5948 34.554 45.4432 33.4017 43.9986 32.7777L46.1929 30.5834C47.8986 30.7377 49.258 32.0989 49.4123 33.8063L47.218 35.9989Z"/>
</mask>
<path fill-rule="evenodd" clip-rule="evenodd" d="M45.8689 28C47.4952 28 49.0549 28.646 50.2049 29.796C51.3548 30.946 52.0009 32.5057 52.0009 34.132C52.0009 34.5949 51.8157 35.0406 51.4866 35.3697L50.5815 36.2766L47.2026 39.6554L38.53 48.328C37.812 49.0457 36.8976 49.5348 35.902 49.7337L31.3797 50.6389C31.1029 50.6943 30.8167 50.6806 30.5464 50.5988C30.2762 50.5171 30.0304 50.3698 29.8307 50.1702C29.6311 49.9705 29.4838 49.7247 29.4021 49.4544C29.3203 49.1842 29.3066 48.898 29.362 48.6211L30.2672 44.0989C30.4661 43.1033 30.9552 42.1889 31.6729 41.4709L40.3455 32.7983L44.6312 28.5126C44.9586 28.1851 45.4043 28 45.8689 28ZM41.9089 34.8726L33.4917 43.2897C33.1331 43.6485 32.8885 44.1054 32.7889 44.6029L32.1375 47.8651L35.398 47.2137C35.8961 47.1144 36.3536 46.8699 36.7129 46.5109L45.13 38.0937C45.0535 37.2648 44.6894 36.4888 44.1008 35.9001C43.5121 35.3115 42.7361 34.9474 41.9072 34.8709M47.218 35.9989C46.5948 34.554 45.4432 33.4017 43.9986 32.7777L46.1929 30.5834C47.8986 30.7377 49.258 32.0989 49.4123 33.8063L47.218 35.9989Z" fill="#FF7E29"/>
<path d="M52.0009 34.132H50.858H52.0009ZM51.4866 35.3697L50.6785 34.5616L50.6777 34.5624L51.4866 35.3697ZM50.5815 36.2766L51.3896 37.0847L51.3903 37.0839L50.5815 36.2766ZM38.53 48.328L39.338 49.1363L39.3382 49.1361L38.53 48.328ZM35.902 49.7337L35.6781 48.613L35.6777 48.6131L35.902 49.7337ZM31.3797 50.6389L31.1555 49.5182L31.1552 49.5183L31.3797 50.6389ZM29.362 48.6211L30.4826 48.8457L30.4827 48.8454L29.362 48.6211ZM30.2672 44.0989L31.3878 44.3232L31.3879 44.3228L30.2672 44.0989ZM31.6729 41.4709L30.8648 40.6627L30.8646 40.6629L31.6729 41.4709ZM40.3455 32.7983L41.1536 33.6064L40.3455 32.7983ZM33.4917 43.2897L32.6836 42.4816L32.6835 42.4817L33.4917 43.2897ZM32.7889 44.6029L31.6683 44.3785L31.6682 44.3791L32.7889 44.6029ZM32.1375 47.8651L31.0167 47.6413L30.6812 49.3215L32.3614 48.9859L32.1375 47.8651ZM35.398 47.2137L35.1746 46.0929L35.1741 46.093L35.398 47.2137ZM36.7129 46.5109L37.5207 47.3193L37.521 47.319L36.7129 46.5109ZM45.13 38.0937L45.9382 38.9018L46.3173 38.5226L46.2681 37.9887L45.13 38.0937ZM47.218 35.9989L46.1686 36.4515L46.8353 37.997L48.0258 36.8073L47.218 35.9989ZM43.9986 32.7777L43.1905 31.9696L42.0005 33.1595L43.5454 33.8269L43.9986 32.7777ZM46.1929 30.5834L46.2958 29.4452L45.7631 29.397L45.3848 29.7753L46.1929 30.5834ZM49.4123 33.8063L50.2201 34.6147L50.5987 34.2364L50.5505 33.7034L49.4123 33.8063ZM45.8689 29.1429C47.1921 29.1429 48.4611 29.6685 49.3967 30.6041L51.013 28.9879C49.6487 27.6236 47.7983 26.8571 45.8689 26.8571V29.1429ZM49.3967 30.6041C50.3324 31.5398 50.858 32.8088 50.858 34.132H53.1437C53.1437 32.2026 52.3773 30.3522 51.013 28.9879L49.3967 30.6041ZM50.858 34.132C50.858 34.29 50.7946 34.4455 50.6785 34.5616L52.2947 36.1778C52.8369 35.6356 53.1437 34.8997 53.1437 34.132H50.858ZM50.6777 34.5624L49.7726 35.4692L51.3903 37.0839L52.2955 36.1771L50.6777 34.5624ZM49.7733 35.4684L46.3945 38.8473L48.0107 40.4636L51.3896 37.0847L49.7733 35.4684ZM46.3945 38.8473L37.7219 47.5199L39.3382 49.1361L48.0107 40.4636L46.3945 38.8473ZM37.7221 47.5197C37.1636 48.0779 36.4524 48.4583 35.6781 48.613L36.126 50.8544C37.3427 50.6113 38.4603 50.0135 39.338 49.1363L37.7221 47.5197ZM35.6777 48.6131L31.1555 49.5182L31.604 51.7595L36.1263 50.8543L35.6777 48.6131ZM31.1552 49.5183C31.0629 49.5368 30.9675 49.5322 30.8774 49.5049L30.2155 51.6927C30.6659 51.829 31.1429 51.8519 31.6043 51.7594L31.1552 49.5183ZM30.8774 49.5049C30.7873 49.4777 30.7054 49.4286 30.6388 49.3621L29.0226 50.9783C29.3553 51.311 29.7651 51.5564 30.2155 51.6927L30.8774 49.5049ZM30.6388 49.3621C30.5723 49.2955 30.5232 49.2136 30.496 49.1235L28.3082 49.7854C28.4445 50.2358 28.6899 50.6456 29.0226 50.9783L30.6388 49.3621ZM30.496 49.1235C30.4687 49.0334 30.4641 48.938 30.4826 48.8457L28.2415 48.3966C28.149 48.858 28.1719 49.335 28.3082 49.7854L30.496 49.1235ZM30.4827 48.8454L31.3878 44.3232L29.1465 43.8746L28.2414 48.3968L30.4827 48.8454ZM31.3879 44.3228C31.5426 43.5485 31.923 42.8373 32.4812 42.2788L30.8646 40.6629C29.9874 41.5406 29.3896 42.6582 29.1465 43.8749L31.3879 44.3228ZM32.481 42.279L41.1536 33.6064L39.5373 31.9902L30.8648 40.6627L32.481 42.279ZM41.1536 33.6064L45.4393 29.3207L43.8231 27.7044L39.5373 31.9902L41.1536 33.6064ZM45.4393 29.3207C45.5526 29.2073 45.7078 29.1429 45.8689 29.1429V26.8571C45.1009 26.8571 44.3646 27.1629 43.8231 27.7044L45.4393 29.3207ZM41.1008 34.0644L32.6836 42.4816L34.2999 44.0978L42.717 35.6807L41.1008 34.0644ZM32.6835 42.4817C32.1654 43 31.8122 43.6599 31.6683 44.3785L33.9095 44.8273C33.9648 44.5509 34.1007 44.2971 34.3 44.0977L32.6835 42.4817ZM31.6682 44.3791L31.0167 47.6413L33.2582 48.0889L33.9096 44.8267L31.6682 44.3791ZM32.3614 48.9859L35.6219 48.3344L35.1741 46.093L31.9136 46.7444L32.3614 48.9859ZM35.6215 48.3345C36.3409 48.1911 37.0018 47.8378 37.5207 47.3193L35.9051 45.7024C35.7055 45.9019 35.4513 46.0377 35.1746 46.0929L35.6215 48.3345ZM37.521 47.319L45.9382 38.9018L44.3219 37.2856L35.9048 45.7027L37.521 47.319ZM46.2681 37.9887C46.167 36.8941 45.6862 35.8693 44.9089 35.092L43.2926 36.7083C43.6926 37.1082 43.94 37.6355 43.992 38.1988L46.2681 37.9887ZM44.9089 35.092C44.1316 34.3147 43.1068 33.8339 42.0122 33.7328L41.8021 36.0089C42.3654 36.0609 42.8927 36.3083 43.2926 36.7083L44.9089 35.092ZM48.2674 35.5462C47.5288 33.8337 46.1639 32.4681 44.4518 31.7286L43.5454 33.8269C44.7224 34.3353 45.6608 35.2742 46.1686 36.4515L48.2674 35.5462ZM44.8067 33.5858L47.001 31.3916L45.3848 29.7753L43.1905 31.9696L44.8067 33.5858ZM46.0899 31.7216C47.2448 31.8261 48.1694 32.7506 48.2741 33.9091L50.5505 33.7034C50.3467 31.4471 48.5525 29.6493 46.2958 29.4452L46.0899 31.7216ZM48.6045 32.9978L46.4102 35.1904L48.0258 36.8073L50.2201 34.6147L48.6045 32.9978Z" fill="#FF7E29" mask="url(#path-2-inside-1_1642_54534)"/>
</g>
<defs>
<filter id="filter0_d_1642_54534" x="0" y="0" width="80" height="80" filterUnits="userSpaceOnUse" color-interpolation-filters="sRGB">
<feFlood flood-opacity="0" result="BackgroundImageFix"/>
<feColorMatrix in="SourceAlpha" type="matrix" values="0 0 0 0 0 0 0 0 0 0 0 0 0 0 0 0 0 0 127 0" result="hardAlpha"/>
<feOffset/>
<feGaussianBlur stdDeviation="6"/>
<feComposite in2="hardAlpha" operator="out"/>
<feColorMatrix type="matrix" values="0 0 0 0 0 0 0 0 0 0 0 0 0 0 0 0 0 0 0.1 0"/>
<feBlend mode="normal" in2="BackgroundImageFix" result="effect1_dropShadow_1642_54534"/>
<feBlend mode="normal" in="SourceGraphic" in2="effect1_dropShadow_1642_54534" result="shape"/>
</filter>
</defs>
</svg>
