<svg width="30" height="29" viewBox="0 0 30 29" fill="none" xmlns="http://www.w3.org/2000/svg">
<g clip-path="url(#clip0_1799_3841)">
<path d="M25.8 18.1002V21.7002H29.4V24.1002H25.8V27.7002H23.4V24.1002H19.8V21.7002H23.4V18.1002H25.8ZM25.8096 3.7002C26.4672 3.7002 27 4.2342 27 4.8918V16.1106C26.2291 15.8385 25.4175 15.6998 24.6 15.7002V6.1002H5.4L5.4012 22.9002L16.5516 11.7486C16.7581 11.5418 17.0329 11.4175 17.3246 11.3989C17.6162 11.3804 17.9046 11.4688 18.1356 11.6478L18.2484 11.7498L22.5024 16.0098C21.572 16.2933 20.7086 16.7623 19.9643 17.3885C19.2201 18.0148 18.6103 18.7852 18.1719 19.6535C17.7335 20.5217 17.4754 21.4698 17.4133 22.4405C17.3511 23.4111 17.4862 24.3843 17.8104 25.3014L4.1904 25.3002C3.87458 25.2999 3.5718 25.1742 3.34859 24.9508C3.12538 24.7273 3 24.4244 3 24.1086V4.8918C3.0022 4.57665 3.12828 4.27502 3.35102 4.05206C3.57375 3.8291 3.87526 3.70271 4.1904 3.7002H25.8096ZM10.2 8.5002C10.8365 8.5002 11.447 8.75305 11.8971 9.20314C12.3471 9.65323 12.6 10.2637 12.6 10.9002C12.6 11.5367 12.3471 12.1472 11.8971 12.5973C11.447 13.0473 10.8365 13.3002 10.2 13.3002C9.56348 13.3002 8.95303 13.0473 8.50294 12.5973C8.05286 12.1472 7.8 11.5367 7.8 10.9002C7.8 10.2637 8.05286 9.65323 8.50294 9.20314C8.95303 8.75305 9.56348 8.5002 10.2 8.5002Z" fill="#585858"/>
</g>
<defs>
<clipPath id="clip0_1799_3841">
<rect width="28.8" height="28.8" fill="white" transform="translate(0.599976 0.100098)"/>
</clipPath>
</defs>
</svg>
