<svg width="32" height="32" viewBox="0 0 32 32" fill="none" xmlns="http://www.w3.org/2000/svg">
<rect width="32" height="32" fill="white"/>
<path d="M17.7778 25.9464V22.05C17.7778 21.6082 17.4184 21.248 16.9771 21.2688C11.8724 21.5091 7.94045 24.0073 5.66211 26.1455C5.09464 26.6781 4.03502 26.2804 4.09814 25.5047C5.03478 13.9943 12.4581 10.8877 16.9347 10.7419C17.3934 10.7269 17.7778 10.3642 17.7778 9.90527V6.05359C17.7778 5.32437 18.6737 4.97537 19.167 5.51241L28.3029 15.4588C28.584 15.7649 28.584 16.2351 28.3029 16.5412L19.167 26.4876C18.6737 27.0246 17.7778 26.6756 17.7778 25.9464Z" stroke="#585858" stroke-width="1.6"/>
</svg>
