<svg width="24" height="24" viewBox="0 0 24 24" fill="none" xmlns="http://www.w3.org/2000/svg">
<path fill-rule="evenodd" clip-rule="evenodd" d="M16.8712 15.4564C18.1181 13.8487 18.7058 11.8264 18.5147 9.80082C18.3235 7.77525 17.3678 5.89858 15.8421 4.55261C14.3164 3.20664 12.3352 2.49248 10.3016 2.55541C8.268 2.61833 6.33475 3.45363 4.89516 4.89136C3.45432 6.33008 2.61629 8.26408 2.55186 10.2992C2.48743 12.3344 3.20144 14.3175 4.54839 15.8445C5.89534 17.3715 7.77386 18.3274 9.80114 18.5174C11.8284 18.7075 13.8519 18.1174 15.4592 16.8674L15.5022 16.9124L19.7442 21.1554C19.8371 21.2483 19.9474 21.322 20.0688 21.3723C20.1902 21.4225 20.3203 21.4484 20.4517 21.4484C20.5831 21.4484 20.7132 21.4225 20.8346 21.3723C20.956 21.322 21.0663 21.2483 21.1592 21.1554C21.2521 21.0624 21.3258 20.9521 21.3761 20.8308C21.4263 20.7094 21.4522 20.5793 21.4522 20.4479C21.4522 20.3165 21.4263 20.1864 21.3761 20.065C21.3258 19.9436 21.2521 19.8333 21.1592 19.7404L16.9162 15.4984C16.9016 15.4839 16.8865 15.4699 16.8712 15.4564ZM14.7952 6.30636C15.3598 6.86184 15.8088 7.52361 16.1164 8.25349C16.4239 8.98338 16.5839 9.76694 16.5872 10.559C16.5904 11.351 16.4368 12.1359 16.1352 12.8682C15.8335 13.6006 15.3899 14.266 14.8299 14.8261C14.2698 15.3861 13.6044 15.8297 12.872 16.1314C12.1397 16.433 11.3548 16.5866 10.5628 16.5834C9.77075 16.5801 8.98719 16.4201 8.2573 16.1126C7.52741 15.805 6.86564 15.356 6.31016 14.7914C5.20008 13.663 4.58082 12.1418 4.58726 10.559C4.59371 8.97616 5.22534 7.46 6.34457 6.34077C7.46381 5.22154 8.97996 4.5899 10.5628 4.58346C12.1456 4.57701 13.6669 5.19628 14.7952 6.30636Z" fill="#FF7E29"/>
</svg>
