<svg width="20" height="21" viewBox="0 0 20 21" fill="none" xmlns="http://www.w3.org/2000/svg">
<path d="M7.80247 17.5C7.60494 17.5 7.34979 17.3733 7.24691 17.31C7.10411 17.2123 7.02631 16.9891 7.00245 16.8786C7.00074 16.8706 7 16.8625 7 16.8544V16.74V9.26625C7 9.16491 7.04115 9.01291 7.06173 8.94957C7.10825 8.80637 7.26799 8.6894 7.35515 8.64102C7.36519 8.63546 7.37598 8.63191 7.38705 8.62888C7.63173 8.56189 8.00328 8.11042 8.16723 7.88073C8.17106 7.87537 8.17516 7.8705 8.17969 7.86573C8.47028 7.56047 8.54321 7.02656 8.54321 6.79613V6.60612V5.84607C8.59259 5.03536 9.01646 4.36822 9.22222 4.13599C9.8642 3.57863 10.5597 3.48151 10.8272 3.50262C11.6667 3.50262 12.2469 3.92487 12.4321 4.13599C12.9753 4.64268 13.1523 5.36049 13.1728 5.65606V5.84607V8.82298C13.1728 8.89289 13.2295 8.94956 13.2994 8.94956H14.716C15.4568 8.94956 16.0535 9.32958 16.2593 9.51959C16.8519 9.97561 17 10.6808 17 10.9763V11.1663V11.293V11.4079C17 11.4157 16.9993 11.4236 16.9978 11.4313L16.2593 15.3466C15.9136 17.0186 14.6337 17.4789 14.037 17.5H13.9136H7.80247Z" stroke="#585858" stroke-linecap="round"/>
<path d="M5 16.5V10.5C5 9.94772 4.55228 9.5 4 9.5H3C2.44772 9.5 2 9.94772 2 10.5V16.5C2 17.0523 2.44772 17.5 3 17.5H4C4.55228 17.5 5 17.0523 5 16.5Z" stroke="#585858"/>
</svg>
