<svg width="18" height="18" viewBox="0 0 18 18" fill="none" xmlns="http://www.w3.org/2000/svg">
<path d="M12.8228 5.18326C12.7667 5.12701 12.7 5.08238 12.6266 5.05193C12.5532 5.02148 12.4745 5.00581 12.395 5.00581C12.3155 5.00581 12.2369 5.02148 12.1634 5.05193C12.09 5.08238 12.0234 5.12701 11.9672 5.18326L9 8.14442L6.03278 5.1772C5.9766 5.12102 5.90991 5.07646 5.8365 5.04605C5.7631 5.01565 5.68443 5 5.60499 5C5.52554 5 5.44687 5.01565 5.37347 5.04605C5.30007 5.07646 5.23337 5.12102 5.1772 5.1772C5.12102 5.23337 5.07646 5.30007 5.04605 5.37347C5.01565 5.44687 5 5.52554 5 5.60499C5 5.68443 5.01565 5.7631 5.04605 5.8365C5.07646 5.90991 5.12102 5.9766 5.1772 6.03278L8.14442 9L5.1772 11.9672C5.12102 12.0234 5.07646 12.0901 5.04605 12.1635C5.01565 12.2369 5 12.3156 5 12.395C5 12.4745 5.01565 12.5531 5.04605 12.6265C5.07646 12.6999 5.12102 12.7666 5.1772 12.8228C5.23337 12.879 5.30007 12.9235 5.37347 12.9539C5.44687 12.9844 5.52554 13 5.60499 13C5.68443 13 5.7631 12.9844 5.8365 12.9539C5.90991 12.9235 5.9766 12.879 6.03278 12.8228L9 9.85558L11.9672 12.8228C12.0234 12.879 12.0901 12.9235 12.1635 12.9539C12.2369 12.9844 12.3156 13 12.395 13C12.4745 13 12.5531 12.9844 12.6265 12.9539C12.6999 12.9235 12.7666 12.879 12.8228 12.8228C12.879 12.7666 12.9235 12.6999 12.9539 12.6265C12.9844 12.5531 13 12.4745 13 12.395C13 12.3156 12.9844 12.2369 12.9539 12.1635C12.9235 12.0901 12.879 12.0234 12.8228 11.9672L9.85558 9L12.8228 6.03278C13.0534 5.80219 13.0534 5.41385 12.8228 5.18326Z" fill="#585858"/>
</svg>
