<svg width="42" height="42" viewBox="0 0 42 42" fill="none" xmlns="http://www.w3.org/2000/svg">
<path d="M37.3792 24.6112C37.3792 28.8084 35.5665 31.981 32.6314 34.1178C29.6823 36.2647 25.5768 37.38 20.9992 37.38C16.4216 37.38 12.3161 36.2647 9.36702 34.1178C6.43194 31.981 4.61922 28.8084 4.61922 24.6112C4.61922 21.021 5.94598 17.0851 8.18007 13.8385C10.4148 10.5909 13.5264 8.0763 17.0614 7.26247C17.1534 7.2413 17.2436 7.19281 17.3145 7.11286C17.3816 7.03716 17.4123 6.95477 17.4267 6.89206C17.4527 6.77853 17.4377 6.67134 17.4276 6.61296C17.4109 6.51632 17.3753 6.39542 17.3476 6.30149C17.3406 6.2777 17.334 6.25564 17.3285 6.23614C17.324 6.22049 17.3199 6.2056 17.316 6.19145C17.3663 6.2278 17.4253 6.28251 17.4935 6.3588C17.5592 6.43239 17.6058 6.49184 17.656 6.55583C17.6921 6.60191 17.73 6.65036 17.7783 6.70813C17.8233 6.76187 17.8837 6.83062 17.9527 6.88625C18.0057 6.92893 18.1605 7.04533 18.3736 7.0133C18.5686 6.984 18.707 6.86223 18.7862 6.77988C18.8741 6.68848 18.9537 6.57625 19.0242 6.46679C19.1146 6.32641 19.2153 6.14924 19.316 5.97185C19.3677 5.8809 19.4194 5.7899 19.4697 5.70376C19.6282 5.43267 19.7917 5.17607 19.9675 4.97174C20.0461 4.8804 20.1215 4.80634 20.1935 4.74821C20.2125 4.79646 20.2296 4.85046 20.2448 4.91068C20.2935 5.10463 20.3127 5.32531 20.3263 5.55896C20.3283 5.59318 20.3302 5.62877 20.3321 5.6652C20.342 5.85269 20.3532 6.06273 20.3862 6.22607C20.406 6.32436 20.4429 6.45933 20.5288 6.57703C20.6315 6.71773 20.7946 6.81807 20.9992 6.81807C25.4895 6.81807 29.5818 9.12797 32.5627 12.5297C35.545 15.9329 37.3792 20.3904 37.3792 24.6112Z" fill="url(#paint0_linear_1787_19747)" stroke="#424242" stroke-width="0.84"/>
<ellipse cx="14.2816" cy="20.7901" rx="1.68" ry="1.89" fill="#424242"/>
<ellipse cx="27.3011" cy="20.7901" rx="1.68" ry="1.89" fill="#424242"/>
<ellipse cx="20.9975" cy="28.1399" rx="3.78" ry="2.52" fill="#FCD959"/>
<path d="M17.6406 16.4234V18.7407M20.1896 15.96V18.3931M22.0434 15.96V18.7407M24.3606 16.4234V18.3931" stroke="#424242" stroke-width="0.463448" stroke-linecap="round"/>
<defs>
<linearGradient id="paint0_linear_1787_19747" x1="20.9992" y1="4.19995" x2="20.9992" y2="37.8" gradientUnits="userSpaceOnUse">
<stop stop-color="#FFD0D0" stop-opacity="0.5"/>
<stop offset="0.525" stop-color="white"/>
<stop offset="1" stop-color="white"/>
</linearGradient>
</defs>
</svg>
