<svg width="32" height="32" viewBox="0 0 32 32" fill="none" xmlns="http://www.w3.org/2000/svg">
<mask id="path-1-inside-1_1642_54539" fill="white">
<path fill-rule="evenodd" clip-rule="evenodd" d="M21.8689 4C23.4952 4 25.0549 4.64605 26.2049 5.79602C27.3548 6.94599 28.0009 8.50569 28.0009 10.132C28.0009 10.5949 27.8157 11.0406 27.4866 11.3697L26.5815 12.2766L23.2026 15.6554L14.53 24.328C13.812 25.0457 12.8976 25.5348 11.902 25.7337L7.37975 26.6389C7.10292 26.6943 6.81668 26.6806 6.54644 26.5988C6.27621 26.5171 6.03035 26.3698 5.83072 26.1702C5.63108 25.9705 5.48384 25.7247 5.40207 25.4544C5.32031 25.1842 5.30656 24.898 5.36203 24.6211L6.26718 20.0989C6.46609 19.1033 6.9552 18.1889 7.67289 17.4709L16.3455 8.79829L20.6312 4.51257C20.9586 4.18514 21.4043 4 21.8689 4ZM17.9089 10.8726L9.49175 19.2897C9.13305 19.6485 8.88851 20.1054 8.78889 20.6029L8.13746 23.8651L11.398 23.2137C11.8961 23.1144 12.3536 22.8699 12.7129 22.5109L21.13 14.0937C21.0535 13.2648 20.6894 12.4888 20.1008 11.9001C19.5121 11.3115 18.7361 10.9474 17.9072 10.8709M23.218 11.9989C22.5948 10.554 21.4432 9.40172 19.9986 8.77771L22.1929 6.58343C23.8986 6.73771 25.258 8.09886 25.4123 9.80629L23.218 11.9989Z"/>
</mask>
<path fill-rule="evenodd" clip-rule="evenodd" d="M21.8689 4C23.4952 4 25.0549 4.64605 26.2049 5.79602C27.3548 6.94599 28.0009 8.50569 28.0009 10.132C28.0009 10.5949 27.8157 11.0406 27.4866 11.3697L26.5815 12.2766L23.2026 15.6554L14.53 24.328C13.812 25.0457 12.8976 25.5348 11.902 25.7337L7.37975 26.6389C7.10292 26.6943 6.81668 26.6806 6.54644 26.5988C6.27621 26.5171 6.03035 26.3698 5.83072 26.1702C5.63108 25.9705 5.48384 25.7247 5.40207 25.4544C5.32031 25.1842 5.30656 24.898 5.36203 24.6211L6.26718 20.0989C6.46609 19.1033 6.9552 18.1889 7.67289 17.4709L16.3455 8.79829L20.6312 4.51257C20.9586 4.18514 21.4043 4 21.8689 4ZM17.9089 10.8726L9.49175 19.2897C9.13305 19.6485 8.88851 20.1054 8.78889 20.6029L8.13746 23.8651L11.398 23.2137C11.8961 23.1144 12.3536 22.8699 12.7129 22.5109L21.13 14.0937C21.0535 13.2648 20.6894 12.4888 20.1008 11.9001C19.5121 11.3115 18.7361 10.9474 17.9072 10.8709M23.218 11.9989C22.5948 10.554 21.4432 9.40172 19.9986 8.77771L22.1929 6.58343C23.8986 6.73771 25.258 8.09886 25.4123 9.80629L23.218 11.9989Z" fill="#585858"/>
<path d="M28.0009 10.132H26.858H28.0009ZM27.4866 11.3697L26.6785 10.5616L26.6777 10.5624L27.4866 11.3697ZM26.5815 12.2766L27.3896 13.0847L27.3903 13.0839L26.5815 12.2766ZM14.53 24.328L15.338 25.1363L15.3382 25.1361L14.53 24.328ZM11.902 25.7337L11.6781 24.613L11.6777 24.6131L11.902 25.7337ZM7.37975 26.6389L7.15545 25.5182L7.15518 25.5183L7.37975 26.6389ZM5.36203 24.6211L6.48261 24.8457L6.48266 24.8454L5.36203 24.6211ZM6.26718 20.0989L7.38781 20.3232L7.38788 20.3228L6.26718 20.0989ZM7.67289 17.4709L6.86477 16.6627L6.86457 16.6629L7.67289 17.4709ZM16.3455 8.79829L17.1536 9.60641L16.3455 8.79829ZM9.49175 19.2897L8.68363 18.4816L8.68352 18.4817L9.49175 19.2897ZM8.78889 20.6029L7.66828 20.3785L7.66816 20.3791L8.78889 20.6029ZM8.13746 23.8651L7.01673 23.6413L6.68123 25.3215L8.36137 24.9859L8.13746 23.8651ZM11.398 23.2137L11.1746 22.0929L11.1741 22.093L11.398 23.2137ZM12.7129 22.5109L13.5207 23.3193L13.521 23.319L12.7129 22.5109ZM21.13 14.0937L21.9382 14.9018L22.3173 14.5226L22.2681 13.9887L21.13 14.0937ZM23.218 11.9989L22.1686 12.4515L22.8353 13.997L24.0258 12.8073L23.218 11.9989ZM19.9986 8.77771L19.1905 7.96959L18.0005 9.15953L19.5454 9.82687L19.9986 8.77771ZM22.1929 6.58343L22.2958 5.44522L21.7631 5.39703L21.3848 5.77531L22.1929 6.58343ZM25.4123 9.80629L26.2201 10.6147L26.5987 10.2364L26.5505 9.70343L25.4123 9.80629ZM21.8689 5.14286C23.1921 5.14286 24.4611 5.6685 25.3967 6.60414L27.013 4.9879C25.6487 3.6236 23.7983 2.85714 21.8689 2.85714V5.14286ZM25.3967 6.60414C26.3324 7.53979 26.858 8.8088 26.858 10.132H29.1437C29.1437 8.20259 28.3773 6.3522 27.013 4.9879L25.3967 6.60414ZM26.858 10.132C26.858 10.29 26.7946 10.4455 26.6785 10.5616L28.2947 12.1778C28.8369 11.6356 29.1437 10.8997 29.1437 10.132H26.858ZM26.6777 10.5624L25.7726 11.4692L27.3903 13.0839L28.2955 12.1771L26.6777 10.5624ZM25.7733 11.4684L22.3945 14.8473L24.0107 16.4636L27.3896 13.0847L25.7733 11.4684ZM22.3945 14.8473L13.7219 23.5199L15.3382 25.1361L24.0107 16.4636L22.3945 14.8473ZM13.7221 23.5197C13.1636 24.0779 12.4524 24.4583 11.6781 24.613L12.126 26.8544C13.3427 26.6113 14.4603 26.0135 15.338 25.1363L13.7221 23.5197ZM11.6777 24.6131L7.15545 25.5182L7.60404 27.7595L12.1263 26.8543L11.6777 24.6131ZM7.15518 25.5183C7.06291 25.5368 6.96749 25.5322 6.87741 25.5049L6.21547 27.6927C6.66586 27.829 7.14293 27.8519 7.60431 27.7594L7.15518 25.5183ZM6.87741 25.5049C6.78734 25.4777 6.70538 25.4286 6.63884 25.3621L5.02259 26.9783C5.35533 27.311 5.76509 27.5564 6.21547 27.6927L6.87741 25.5049ZM6.63884 25.3621C6.57229 25.2955 6.52321 25.2136 6.49596 25.1235L4.30819 25.7854C4.44446 26.2358 4.68986 26.6456 5.02259 26.9783L6.63884 25.3621ZM6.49596 25.1235C6.4687 25.0334 6.46412 24.938 6.48261 24.8457L4.24146 24.3966C4.149 24.858 4.17192 25.335 4.30819 25.7854L6.49596 25.1235ZM6.48266 24.8454L7.38781 20.3232L5.14655 19.8746L4.2414 24.3968L6.48266 24.8454ZM7.38788 20.3228C7.54259 19.5485 7.92301 18.8373 8.48122 18.2788L6.86457 16.6629C5.98739 17.5406 5.38958 18.6582 5.14647 19.8749L7.38788 20.3228ZM8.48101 18.279L17.1536 9.60641L15.5373 7.99016L6.86477 16.6627L8.48101 18.279ZM17.1536 9.60641L21.4393 5.32069L19.8231 3.70445L15.5373 7.99016L17.1536 9.60641ZM21.4393 5.32069C21.5526 5.20735 21.7078 5.14286 21.8689 5.14286V2.85714C21.1009 2.85714 20.3646 3.16294 19.8231 3.70445L21.4393 5.32069ZM17.1008 10.0644L8.68363 18.4816L10.2999 20.0978L18.717 11.6807L17.1008 10.0644ZM8.68352 18.4817C8.1654 19 7.81217 19.6599 7.66828 20.3785L9.9095 20.8273C9.96484 20.5509 10.1007 20.2971 10.3 20.0977L8.68352 18.4817ZM7.66816 20.3791L7.01673 23.6413L9.25819 24.0889L9.90962 20.8267L7.66816 20.3791ZM8.36137 24.9859L11.6219 24.3344L11.1741 22.093L7.91356 22.7444L8.36137 24.9859ZM11.6215 24.3345C12.3409 24.1911 13.0018 23.8378 13.5207 23.3193L11.9051 21.7024C11.7055 21.9019 11.4513 22.0377 11.1746 22.0929L11.6215 24.3345ZM13.521 23.319L21.9382 14.9018L20.3219 13.2856L11.9048 21.7027L13.521 23.319ZM22.2681 13.9887C22.167 12.8941 21.6862 11.8693 20.9089 11.092L19.2926 12.7083C19.6926 13.1082 19.94 13.6355 19.992 14.1988L22.2681 13.9887ZM20.9089 11.092C20.1316 10.3147 19.1068 9.83388 18.0122 9.73284L17.8021 12.0089C18.3654 12.0609 18.8927 12.3083 19.2926 12.7083L20.9089 11.092ZM24.2674 11.5462C23.5288 9.83375 22.1639 8.46812 20.4518 7.72856L19.5454 9.82687C20.7224 10.3353 21.6608 11.2742 22.1686 12.4515L24.2674 11.5462ZM20.8067 9.58584L23.001 7.39155L21.3848 5.77531L19.1905 7.96959L20.8067 9.58584ZM22.0899 7.72164C23.2448 7.82609 24.1694 8.75057 24.2741 9.90914L26.5505 9.70343C26.3467 7.44714 24.5525 5.64933 22.2958 5.44522L22.0899 7.72164ZM24.6045 8.99785L22.4102 11.1904L24.0258 12.8073L26.2201 10.6147L24.6045 8.99785Z" fill="#585858" mask="url(#path-1-inside-1_1642_54539)"/>
</svg>
