<svg width="32" height="32" viewBox="0 0 32 32" fill="none" xmlns="http://www.w3.org/2000/svg">
<rect width="32" height="32" transform="translate(0 0.000244141)" fill="white"/>
<path d="M13.76 27.201C13.4542 27.201 13.0591 26.9983 12.8999 26.897C12.6785 26.7405 12.5581 26.3828 12.5213 26.2062C12.5187 26.1938 12.5176 26.1813 12.5176 26.1687V25.985V14.027C12.5176 13.8649 12.5813 13.6217 12.6131 13.5203C12.685 13.2919 12.931 13.1052 13.0662 13.0274C13.0825 13.018 13.1002 13.012 13.1183 13.0068C13.4972 12.8981 14.0712 12.1773 14.3247 11.8103C14.3307 11.8016 14.337 11.7938 14.3441 11.7861C14.794 11.2977 14.9068 10.4435 14.9068 10.0748V9.77082V8.55474C14.9833 7.2576 15.6396 6.19018 15.9581 5.8186C16.9521 4.92683 18.0288 4.77144 18.443 4.80522C19.7427 4.80522 20.6411 5.48081 20.9278 5.8186C21.7688 6.62931 22.0428 7.77781 22.0747 8.25073V8.55474V13.3178C22.0747 13.4297 22.1653 13.5203 22.2772 13.5203H24.4639C25.6108 13.5203 26.5346 14.1284 26.8532 14.4324C27.7707 15.162 28 16.2902 28 16.7632V17.0672V17.2698V17.4542C28 17.4664 27.9989 17.4786 27.9968 17.4906L26.8532 23.7555C26.318 26.4308 24.3365 27.1672 23.4126 27.201H23.2215H13.76Z" stroke="#585858" stroke-width="1.6" stroke-linecap="round"/>
<path d="M8.64474 26.0638V15.5394C8.64474 15.1737 8.4144 14.8374 8.28689 14.7004C8.27784 14.6907 8.26965 14.6804 8.26178 14.6696C8.10465 14.4557 7.71124 14.4016 7.53 14.4016H6.32237H6.13658C5.61637 14.4016 4.92895 14.9073 4.65026 15.1601C4.20437 15.5394 4.03096 16.3295 4 16.6772V24.8312V25.0209C4 25.618 4.47974 26.3253 4.7311 26.6188C4.73924 26.6283 4.74617 26.6381 4.75298 26.6486C4.99196 27.0164 5.89496 27.1705 6.32237 27.2016H7.43711H7.6229C7.84585 27.2016 8.21123 26.9488 8.36606 26.8224C8.589 26.6706 8.64474 26.2535 8.64474 26.0638Z" stroke="#585858" stroke-width="1.6" stroke-linecap="round"/>
</svg>
